<?xml version="1.0" encoding="UTF-8" standalone="no"?>
<svg
   xmlns:dc="http://purl.org/dc/elements/1.1/"
   xmlns:cc="http://creativecommons.org/ns#"
   xmlns:rdf="http://www.w3.org/1999/02/22-rdf-syntax-ns#"
   xmlns:svg="http://www.w3.org/2000/svg"
   xmlns="http://www.w3.org/2000/svg"
   xmlns:sodipodi="http://sodipodi.sourceforge.net/DTD/sodipodi-0.dtd"
   xmlns:inkscape="http://www.inkscape.org/namespaces/inkscape"
   width="100"
   height="100"
   viewBox="0 0 2000 2000"
   id="svg2"
   version="1.1"
   inkscape:version="0.91 r13725"
   sodipodi:docname="happy.svg">
  <metadata
     id="metadata12">
    <rdf:RDF>
      <cc:Work
         rdf:about="">
        <dc:format>image/svg+xml</dc:format>
        <dc:type
           rdf:resource="http://purl.org/dc/dcmitype/StillImage" />
        <dc:title></dc:title>
      </cc:Work>
    </rdf:RDF>
  </metadata>
  <defs
     id="defs10" />
  <sodipodi:namedview
     pagecolor="#ffffff"
     bordercolor="#666666"
     borderopacity="1"
     objecttolerance="10"
     gridtolerance="10"
     guidetolerance="10"
     inkscape:pageopacity="0"
     inkscape:pageshadow="2"
     inkscape:window-width="1920"
     inkscape:window-height="1005"
     id="namedview8"
     showgrid="false"
     inkscape:zoom="6.675088"
     inkscape:cx="52.612065"
     inkscape:cy="53.597409"
     inkscape:window-x="-9"
     inkscape:window-y="351"
     inkscape:window-maximized="1"
     inkscape:current-layer="svg2" />
  <path
     d="m 1146.4332,490.33353 -115.6834,0 0,628.68417 q 112.9291,102.6002 112.9291,211.3977 0,4.8201 -5.5089,62.6618 -17.9033,185.9198 -146.6699,219.6607 l -66.79343,-18.5919 q -26.16649,-19.9692 -47.51282,-50.2672 -14.46043,-19.9691 -32.36381,-101.9115 -17.2148,-76.4338 -17.2148,-108.7975 0,-146.6701 123.94645,-215.5292 l 0,-627.30707 -110.17462,0 0,-61.97325 110.17462,0 0,-101.91157 79.18811,0 0,101.91157 115.6834,0 0,61.97325 z m -17.2148,-17.2148 0,-28.23226 -98.4686,0 0,28.23226 98.4686,0 z m -177.65671,0 0,-28.23226 -92.95983,0 0,28.23226 92.95983,0 z m 175.59091,844.90197 q 0,-82.631 -113.6176,-193.4942 l 0,-780.86301 -44.7584,0 0,782.24011 q -123.94656,68.8592 -123.94656,207.2662 0,26.855 15.14901,100.5343 15.83761,77.1223 26.85508,92.9599 15.14901,-111.5518 59.21884,-139.7841 l 49.57863,-8.2631 q 77.1223,24.1008 97.0915,130.8324 15.1489,-20.6577 26.1664,-91.5827 8.2631,-57.8417 8.2631,-99.8458 z m -42.6926,210.0205 -4.1317,0 q -29.6093,-112.2404 -86.0739,-132.2096 l -41.31542,8.2631 q -18.59203,11.7061 -36.49541,64.039 -15.83761,46.8243 -15.83761,74.3679 0,12.3946 33.0524,37.8726 l 57.84174,15.149 q 64.7276,-17.2148 92.9599,-67.482 z m 12.3946,-191.4285 -15.1491,8.2632 q -17.9033,-42.0041 -41.3154,-53.7102 -33.7411,-17.2148 -52.333,-17.2148 -67.48198,0 -91.58269,69.5478 l -16.5262,-6.886 q 32.36381,-79.188 110.17469,-79.188 68.8591,0 106.7317,79.188 z"
     id="path4"
     inkscape:connector-curvature="0"
     style="fill:none;stroke:#000000;stroke-width:0.68859172" />
  <path
     d="m 1146.4332,490.33353 -115.6834,0 0,628.68417 q 112.9291,102.6002 112.9291,211.3977 0,4.8201 -5.5089,62.6618 -17.9033,185.9198 -146.6699,219.6607 l -66.79343,-18.5919 q -26.16649,-19.9692 -47.51282,-50.2672 -14.46043,-19.9691 -32.36381,-101.9115 -17.2148,-76.4338 -17.2148,-108.7975 0,-146.6701 123.94645,-215.5292 l 0,-627.30707 -110.17462,0 0,-61.97325 110.17462,0 0,-101.91157 79.18811,0 0,101.91157 115.6834,0 0,61.97325 z m -17.2148,-17.2148 0,-28.23226 -98.4686,0 0,28.23226 98.4686,0 z m -177.65671,0 0,-28.23226 -92.95983,0 0,28.23226 92.95983,0 z m 175.59091,844.90197 q 0,-82.631 -113.6176,-193.4942 l 0,-780.86301 -44.7584,0 0,782.24011 q -123.94656,68.8592 -123.94656,207.2662 0,26.855 15.14901,100.5343 15.83761,77.1223 26.85508,92.9599 15.14901,-111.5518 59.21884,-139.7841 l 49.57863,-8.2631 q 77.1223,24.1008 97.0915,130.8324 15.1489,-20.6577 26.1664,-91.5827 8.2631,-57.8417 8.2631,-99.8458 z m -42.6926,210.0205 -4.1317,0 q -29.6093,-112.2404 -86.0739,-132.2096 l -41.31542,8.2631 q -18.59203,11.7061 -36.49541,64.039 -15.83761,46.8243 -15.83761,74.3679 0,12.3946 33.0524,37.8726 l 57.84174,15.149 q 64.7276,-17.2148 92.9599,-67.482 z m 12.3946,-191.4285 -15.1491,8.2632 q -17.9033,-42.0041 -41.3154,-53.7102 -33.7411,-17.2148 -52.333,-17.2148 -67.48198,0 -91.58269,69.5478 l -16.5262,-6.886 q 32.36381,-79.188 110.17469,-79.188 68.8591,0 106.7317,79.188 z"
     id="path6"
     inkscape:connector-curvature="0"
     style="fill:#000000;fill-opacity:0.92038215;stroke:#000000;stroke-width:0.68859172" />
  <path
     style="fill:#000000;fill-opacity:0.92038215;stroke:none"
     d="m 956.48718,1601.6629 c -32.65006,-9.415 -33.98935,-10.1963 -54.77157,-31.9536 -24.36581,-25.509 -33.54566,-43.4891 -45.11527,-88.3648 -24.5568,-95.25 -31.03652,-159.3926 -20.96222,-207.5043 12.25207,-58.5119 53.50745,-116.1066 104.62689,-146.0647 l 14.58278,-8.546 -0.85385,-315.11189 -0.85363,-315.11191 -54.38619,-0.91953 -54.3862,-0.91954 0,-28.36524 0,-28.36527 55.22291,0 55.22289,0 0,-50.20262 0,-50.20265 36.81528,0 36.8153,0 0,50.20265 0,50.20262 58.5696,0 58.5698,0 0,28.44817 0,28.44815 -58.5698,0 -58.5696,0 0,316.06902 0,316.06904 25.4232,26.1456 c 47.0791,48.4168 77.1892,103.0464 85.1792,154.5425 4.4309,28.5583 -2.8962,114.4525 -13.2002,154.7403 -18.4866,72.2821 -52.3825,119.8989 -101.952,143.2221 -29.8581,14.0487 -30.7999,14.0982 -67.40734,3.542 z m 50.44312,-8.7486 c 27.9216,-9.4285 55.9501,-29.5671 71.8535,-51.6268 6.1772,-8.5684 6.1325,-9.0072 -3.9268,-38.4887 -18.406,-53.9445 -41.4121,-88.9828 -66.9954,-102.0345 -11.9271,-6.0847 -15.1302,-6.3463 -33.9455,-2.7726 -11.6966,2.2215 -24.27768,7.0364 -28.78916,11.0177 -16.0033,14.1225 -40.30386,78.6026 -45.79809,121.5227 -2.21863,17.3311 -2.16904,17.4527 14.07856,34.4786 15.01045,15.7294 18.69658,17.7125 46.42659,24.9765 16.5669,4.3396 30.2298,8.0268 30.3621,8.1936 0.1318,0.1675 7.6627,-2.2032 16.7342,-5.2665 z m -115.7578,-80.0762 c 0.10947,-14.8722 13.97197,-61.0398 25.21131,-83.9604 15.57139,-31.7552 24.79284,-39.1172 55.31009,-44.1571 23.4551,-3.8735 25.0506,-3.7017 41.8214,4.5036 19.9396,9.7556 44.2454,34.1717 55.4146,55.6663 4.201,8.0847 10.7415,25.2725 14.5346,38.1951 3.793,12.9226 8.4025,24.0149 10.2432,24.6495 5.5096,1.8996 20.8888,-48.9096 26.7294,-88.3072 8.75,-59.0236 10.241,-110.1065 3.9289,-134.6005 -10.9691,-42.5657 -45.922,-97.464 -88.9672,-139.7359 l -20.3419,-19.9763 0,-390.84853 0,-390.84861 -23.4279,0 -23.4279,0 -0.1966,390.74384 -0.1966,390.7439 -23.62447,15.0607 c -63.60581,40.5492 -99.816,108.654 -99.816,187.7358 0,44.7691 20.42129,154.069 35.55157,190.2808 3.90328,9.3419 5.57243,10.7529 8.06207,6.8155 1.7267,-2.731 3.16272,-8.1133 3.19092,-11.9605 z m 63.64124,-1053.95396 0,-15.06081 -48.52921,0 -48.52921,0 0,15.06081 0,15.06078 48.52921,0 48.52921,0 0,-15.06078 z m 177.38266,0 0,-15.06081 -51.8761,0 -51.876,0 0,15.06081 0,15.06078 51.876,0 51.8761,0 0,-15.06078 z"
     id="path3340"
     inkscape:connector-curvature="0" />
  <path
     d="m 1586.2269,490.33354 -115.6834,0 0,628.68416 q 112.929,102.6002 112.929,211.3977 0,4.8201 -5.5088,62.6618 -17.9033,185.9198 -146.67,219.6607 l -66.7934,-18.5919 q -26.1665,-19.9692 -47.5128,-50.2672 -14.4604,-19.9691 -32.3639,-101.9115 -17.2147,-76.4338 -17.2147,-108.7975 0,-146.6701 123.9464,-215.5292 l 0,-627.30706 -110.1745,0 0,-61.97325 110.1745,0 0,-101.91157 79.1882,0 0,101.91157 115.6834,0 0,61.97325 z m -17.2148,-17.21479 0,-28.23227 -98.4686,0 0,28.23227 98.4686,0 z m -177.6568,0 0,-28.23227 -92.9598,0 0,28.23227 92.9598,0 z m 175.591,844.90195 q 0,-82.631 -113.6176,-193.4942 l 0,-780.863 -44.7585,0 0,782.2401 q -123.9466,68.8592 -123.9466,207.2662 0,26.855 15.1491,100.5343 15.8376,77.1223 26.855,92.9599 15.1491,-111.5518 59.2189,-139.7841 l 49.5787,-8.2631 q 77.1223,24.1008 97.0914,130.8324 15.149,-20.6577 26.1665,-91.5827 8.2631,-57.8417 8.2631,-99.8458 z m -42.6927,210.0205 -4.1316,0 q -29.6094,-112.2404 -86.0739,-132.2096 l -41.3155,8.2631 q -18.592,11.7061 -36.4954,64.039 -15.8376,46.8243 -15.8376,74.3679 0,12.3946 33.0524,37.8726 l 57.8417,15.149 q 64.7276,-17.2148 92.9599,-67.482 z m 12.3946,-191.4285 -15.149,8.2632 q -17.9033,-42.0041 -41.3155,-53.7102 -33.741,-17.2148 -52.333,-17.2148 -67.4819,0 -91.5827,69.5478 l -16.5261,-6.886 q 32.3638,-79.188 110.1746,-79.188 68.8592,0 106.7317,79.188 z"
     id="path4-2"
     inkscape:connector-curvature="0"
     style="fill:none;stroke:#000000;stroke-width:0.68859172" />
  <path
     d="m 1586.2269,490.33354 -115.6834,0 0,628.68416 q 112.929,102.6002 112.929,211.3977 0,4.8201 -5.5088,62.6618 -17.9033,185.9198 -146.67,219.6607 l -66.7934,-18.5919 q -26.1665,-19.9692 -47.5128,-50.2672 -14.4604,-19.9691 -32.3639,-101.9115 -17.2147,-76.4338 -17.2147,-108.7975 0,-146.6701 123.9464,-215.5292 l 0,-627.30706 -110.1745,0 0,-61.97325 110.1745,0 0,-101.91157 79.1882,0 0,101.91157 115.6834,0 0,61.97325 z m -17.2148,-17.21479 0,-28.23227 -98.4686,0 0,28.23227 98.4686,0 z m -177.6568,0 0,-28.23227 -92.9598,0 0,28.23227 92.9598,0 z m 175.591,844.90195 q 0,-82.631 -113.6176,-193.4942 l 0,-780.863 -44.7585,0 0,782.2401 q -123.9466,68.8592 -123.9466,207.2662 0,26.855 15.1491,100.5343 15.8376,77.1223 26.855,92.9599 15.1491,-111.5518 59.2189,-139.7841 l 49.5787,-8.2631 q 77.1223,24.1008 97.0914,130.8324 15.149,-20.6577 26.1665,-91.5827 8.2631,-57.8417 8.2631,-99.8458 z m -42.6927,210.0205 -4.1316,0 q -29.6094,-112.2404 -86.0739,-132.2096 l -41.3155,8.2631 q -18.592,11.7061 -36.4954,64.039 -15.8376,46.8243 -15.8376,74.3679 0,12.3946 33.0524,37.8726 l 57.8417,15.149 q 64.7276,-17.2148 92.9599,-67.482 z m 12.3946,-191.4285 -15.149,8.2632 q -17.9033,-42.0041 -41.3155,-53.7102 -33.741,-17.2148 -52.333,-17.2148 -67.4819,0 -91.5827,69.5478 l -16.5261,-6.886 q 32.3638,-79.188 110.1746,-79.188 68.8592,0 106.7317,79.188 z"
     id="path6-5"
     inkscape:connector-curvature="0"
     style="fill:#000000;fill-opacity:0.92038215;stroke:#000000;stroke-width:0.68859172" />
  <path
     style="fill:#000000;fill-opacity:0.92038215;stroke:none"
     d="m 1396.2809,1601.6629 c -32.6502,-9.415 -33.9894,-10.1963 -54.7716,-31.9536 -24.3659,-25.5089 -33.5457,-43.4891 -45.1154,-88.3648 -24.5567,-95.2499 -31.0365,-159.3925 -20.9621,-207.5042 12.252,-58.512 53.5074,-116.1066 104.6269,-146.0646 l 14.5827,-8.5462 -0.8539,-315.11185 -0.8536,-315.11193 -54.3862,-0.91953 -54.3862,-0.91953 0,-28.36525 0,-28.36527 55.223,0 55.2228,0 0,-50.20262 0,-50.20265 36.8153,0 36.8153,0 0,50.20265 0,50.20262 58.5697,0 58.5698,0 0,28.44818 0,28.44815 -58.5698,0 -58.5697,0 0,316.06906 0,316.06907 25.4231,26.1456 c 47.0792,48.4168 77.1894,103.0463 85.1792,154.5424 4.431,28.5584 -2.8962,114.4525 -13.2001,154.7404 -18.4866,72.282 -52.3824,119.8988 -101.952,143.222 -29.8581,14.0487 -30.7998,14.0982 -67.4074,3.5421 z m 50.4431,-8.7486 c 27.9214,-9.4284 55.9501,-29.5671 71.8535,-51.6268 6.1771,-8.5684 6.1323,-9.0072 -3.9268,-38.4887 -18.4062,-53.9445 -41.4122,-88.9827 -66.9955,-102.0344 -11.9271,-6.0847 -15.1302,-6.3463 -33.9455,-2.7726 -11.6966,2.2215 -24.2777,7.0363 -28.7891,11.0176 -16.0034,14.1226 -40.3039,78.6027 -45.7982,121.5227 -2.2186,17.3312 -2.169,17.4527 14.0787,34.4786 15.0104,15.7295 18.6965,17.7126 46.4266,24.9765 16.5668,4.3397 30.2298,8.0268 30.362,8.1936 0.1318,0.1675 7.6627,-2.2032 16.7343,-5.2665 z m -115.7578,-80.0761 c 0.1094,-14.8722 13.9719,-61.0399 25.2113,-83.9605 15.5713,-31.7552 24.7928,-39.1171 55.3101,-44.157 23.455,-3.8735 25.0504,-3.7017 41.8213,4.5035 19.9397,9.7556 44.2454,34.1718 55.4145,55.6663 4.2011,8.0847 10.7417,25.2726 14.5347,38.1951 3.793,12.9226 8.4025,24.0149 10.2433,24.6496 5.5096,1.8996 20.8887,-48.9097 26.7293,-88.3073 8.7499,-59.0235 10.241,-110.1063 3.9289,-134.6005 -10.9691,-42.5657 -45.9219,-97.464 -88.9672,-139.7358 l -20.3419,-19.9762 0,-390.84868 0,-390.84864 -23.4279,0 -23.4279,0 -0.1966,390.74386 -0.1966,390.74386 -23.6244,15.0608 c -63.6058,40.5492 -99.816,108.654 -99.816,187.7357 0,44.7692 20.4213,154.069 35.5515,190.2809 3.9033,9.3418 5.5725,10.7529 8.0621,6.8155 1.7267,-2.7311 3.1627,-8.1133 3.1909,-11.9605 z m 63.6411,-1053.95404 0,-15.0608 -48.5292,0 -48.5292,0 0,15.0608 0,15.06078 48.5292,0 48.5292,0 0,-15.06078 z m 177.3827,0 0,-15.0608 -51.8761,0 -51.876,0 0,15.0608 0,15.06078 51.876,0 51.8761,0 0,-15.06078 z"
     id="path3340-6"
     inkscape:connector-curvature="0" />
  <path
     d="m 690.44511,490.33352 -115.6834,0 0,628.68418 q 112.92905,102.6002 112.92905,211.3977 0,4.8201 -5.50883,62.6618 -17.90331,185.9198 -146.66997,219.6607 l -66.79341,-18.5919 q -26.1665,-19.9692 -47.51282,-50.2672 -14.46042,-19.9691 -32.36385,-101.9115 -17.21478,-76.4338 -17.21478,-108.7975 0,-146.6701 123.94647,-215.5292 l 0,-627.30708 -110.17458,0 0,-61.97325 110.17458,0 0,-101.91157 79.18814,0 0,101.91157 115.6834,0 0,61.97325 z m -17.21478,-17.2148 0,-28.23226 -98.46862,0 0,28.23226 98.46862,0 z m -177.65676,0 0,-28.23226 -92.9598,0 0,28.23226 92.9598,0 z m 175.59094,844.90198 q 0,-82.631 -113.61759,-193.4942 l 0,-780.86302 -44.75845,0 0,782.24012 q -123.94659,68.8592 -123.94659,207.2662 0,26.855 15.14907,100.5343 15.83761,77.1223 26.85503,92.9599 15.14907,-111.5518 59.21888,-139.7841 l 49.57864,-8.2631 q 77.1223,24.1008 97.09144,130.8324 15.14896,-20.6577 26.1665,-91.5827 8.26307,-57.8417 8.26307,-99.8458 z m -42.69264,210.0205 -4.13164,0 q -29.60939,-112.2404 -86.07391,-132.2096 l -41.31546,8.2631 q -18.59207,11.7061 -36.49538,64.039 -15.83761,46.8243 -15.83761,74.3679 0,12.3946 33.05239,37.8726 l 57.8417,15.149 q 64.7276,-17.2148 92.95991,-67.482 z m 12.39461,-191.4285 -15.14907,8.2632 q -17.90332,-42.0041 -41.31546,-53.7102 -33.74103,-17.2148 -52.33299,-17.2148 -67.48195,0 -91.58262,69.5478 l -16.52625,-6.886 q 32.36385,-79.188 110.17469,-79.188 68.85913,0 106.7317,79.188 z"
     id="path4-9"
     inkscape:connector-curvature="0"
     style="fill:none;stroke:#000000;stroke-width:0.68859172" />
  <path
     d="m 690.44511,490.33352 -115.6834,0 0,628.68418 q 112.92905,102.6002 112.92905,211.3977 0,4.8201 -5.50883,62.6618 -17.90331,185.9198 -146.66997,219.6607 l -66.79341,-18.5919 q -26.1665,-19.9692 -47.51282,-50.2672 -14.46042,-19.9691 -32.36385,-101.9115 -17.21478,-76.4338 -17.21478,-108.7975 0,-146.6701 123.94647,-215.5292 l 0,-627.30708 -110.17458,0 0,-61.97325 110.17458,0 0,-101.91157 79.18814,0 0,101.91157 115.6834,0 0,61.97325 z m -17.21478,-17.2148 0,-28.23226 -98.46862,0 0,28.23226 98.46862,0 z m -177.65676,0 0,-28.23226 -92.9598,0 0,28.23226 92.9598,0 z m 175.59094,844.90198 q 0,-82.631 -113.61759,-193.4942 l 0,-780.86302 -44.75845,0 0,782.24012 q -123.94659,68.8592 -123.94659,207.2662 0,26.855 15.14907,100.5343 15.83761,77.1223 26.85503,92.9599 15.14907,-111.5518 59.21888,-139.7841 l 49.57864,-8.2631 q 77.1223,24.1008 97.09144,130.8324 15.14896,-20.6577 26.1665,-91.5827 8.26307,-57.8417 8.26307,-99.8458 z m -42.69264,210.0205 -4.13164,0 q -29.60939,-112.2404 -86.07391,-132.2096 l -41.31546,8.2631 q -18.59207,11.7061 -36.49538,64.039 -15.83761,46.8243 -15.83761,74.3679 0,12.3946 33.05239,37.8726 l 57.8417,15.149 q 64.7276,-17.2148 92.95991,-67.482 z m 12.39461,-191.4285 -15.14907,8.2632 q -17.90332,-42.0041 -41.31546,-53.7102 -33.74103,-17.2148 -52.33299,-17.2148 -67.48195,0 -91.58262,69.5478 l -16.52625,-6.886 q 32.36385,-79.188 110.17469,-79.188 68.85913,0 106.7317,79.188 z"
     id="path6-8"
     inkscape:connector-curvature="0"
     style="fill:#000000;fill-opacity:0.92038215;stroke:#000000;stroke-width:0.68859172" />
  <path
     style="fill:#000000;fill-opacity:0.92038215;stroke:none"
     d="m 500.49909,1601.6629 c -32.65004,-9.415 -33.98935,-10.1963 -54.77157,-31.9536 -24.36585,-25.5089 -33.54566,-43.4891 -45.11534,-88.3648 -24.55675,-95.25 -31.03649,-159.3925 -20.96217,-207.5043 12.25207,-58.5119 53.50743,-116.1066 104.62688,-146.0647 l 14.58274,-8.546 -0.85385,-315.11189 -0.85363,-315.11191 -54.38619,-0.91953 -54.38619,-0.91954 0,-28.36524 0,-28.36527 55.22295,0 55.22284,0 0,-50.20262 0,-50.20265 36.81531,0 36.8153,0 0,50.20265 0,50.20262 58.56978,0 58.56967,0 0,28.44817 0,28.44815 -58.56967,0 -58.56978,0 0,316.06902 0,316.06914 25.42323,26.1455 c 47.07907,48.4169 77.18922,103.0464 85.17917,154.5425 4.4309,28.5584 -2.89622,114.4525 -13.20009,154.7404 -18.48673,72.282 -52.38247,119.8988 -101.95206,143.222 -29.85814,14.0487 -30.79991,14.0982 -67.40733,3.5421 z m 50.4431,-8.7486 c 27.92156,-9.4284 55.95025,-29.5671 71.85353,-51.6268 6.17714,-8.5684 6.13246,-9.0072 -3.92678,-38.4887 -18.40609,-53.9445 -41.41219,-88.9828 -66.99549,-102.0345 -11.92713,-6.0847 -15.13008,-6.3463 -33.94545,-2.7726 -11.69668,2.2215 -24.27772,7.0364 -28.78915,11.0177 -16.00337,14.1226 -40.30388,78.6027 -45.79807,121.5227 -2.21863,17.3312 -2.16904,17.4527 14.07852,34.4786 15.01044,15.7295 18.69662,17.7126 46.42661,24.9765 16.56691,4.3397 30.22978,8.0268 30.36204,8.1936 0.13181,0.1675 7.66267,-2.2032 16.73424,-5.2665 z m -115.7578,-80.0761 c 0.10947,-14.8722 13.97195,-61.0399 25.21133,-83.9605 15.57141,-31.7552 24.79278,-39.1172 55.31008,-44.157 23.45514,-3.8735 25.05059,-3.7017 41.82135,4.5035 19.93965,9.7556 44.24541,34.1717 55.41464,55.6663 4.20101,8.0847 10.74152,25.2726 14.53459,38.1951 3.79297,12.9226 8.40248,24.0149 10.24322,24.6496 5.50961,1.8996 20.88889,-48.9097 26.72936,-88.3073 8.74998,-59.0236 10.2411,-110.1063 3.92891,-134.6005 -10.96906,-42.5657 -45.92184,-97.464 -88.96722,-139.7359 l -20.34189,-19.9761 0,-390.84873 0,-390.84861 -23.42789,0 -23.42789,0 -0.1966,390.74384 -0.19659,390.7439 -23.62449,15.0607 c -63.60577,40.5493 -99.81598,108.654 -99.81598,187.7358 0,44.7692 20.42131,154.069 35.55162,190.2809 3.90321,9.3418 5.57238,10.7529 8.062,6.8155 1.7267,-2.7311 3.16274,-8.1133 3.19089,-11.9605 z m 63.64129,-1053.95406 0,-15.06081 -48.52931,0 -48.52919,0 0,15.06081 0,15.06078 48.52919,0 48.52931,0 0,-15.06078 z m 177.38263,0 0,-15.06081 -51.87601,0 -51.87613,0 0,15.06081 0,15.06078 51.87613,0 51.87601,0 0,-15.06078 z"
     id="path3340-1"
     inkscape:connector-curvature="0" />
</svg>
