<?xml version="1.0" encoding="UTF-8" standalone="no"?>
<svg
   xmlns:dc="http://purl.org/dc/elements/1.1/"
   xmlns:cc="http://creativecommons.org/ns#"
   xmlns:rdf="http://www.w3.org/1999/02/22-rdf-syntax-ns#"
   xmlns:svg="http://www.w3.org/2000/svg"
   xmlns="http://www.w3.org/2000/svg"
   xmlns:sodipodi="http://sodipodi.sourceforge.net/DTD/sodipodi-0.dtd"
   xmlns:inkscape="http://www.inkscape.org/namespaces/inkscape"
   width="100"
   height="100"
   viewBox="0 0 2000 2000"
   id="svg2"
   version="1.1"
   inkscape:version="0.91 r13725"
   sodipodi:docname="three.svg">
  <metadata
     id="metadata10">
    <rdf:RDF>
      <cc:Work
         rdf:about="">
        <dc:format>image/svg+xml</dc:format>
        <dc:type
           rdf:resource="http://purl.org/dc/dcmitype/StillImage" />
      </cc:Work>
    </rdf:RDF>
  </metadata>
  <defs
     id="defs8" />
  <sodipodi:namedview
     pagecolor="#ffffff"
     bordercolor="#666666"
     borderopacity="1"
     objecttolerance="10"
     gridtolerance="10"
     guidetolerance="10"
     inkscape:pageopacity="0"
     inkscape:pageshadow="2"
     inkscape:window-width="1920"
     inkscape:window-height="1005"
     id="namedview6"
     showgrid="false"
     inkscape:zoom="9.44"
     inkscape:cx="51.729588"
     inkscape:cy="41.066272"
     inkscape:window-x="-9"
     inkscape:window-y="351"
     inkscape:window-maximized="1"
     inkscape:current-layer="svg2" />
  <path
     d="m 182.47349,1030.6717 q 0,23.4198 11.9955,24.5622 l -10.85307,8.5682 3.42728,15.994 66.83211,47.9821 9.71065,0 q 4.56971,0 53.69417,-19.707 49.12446,-19.7069 74.82912,-19.7069 7.42578,0 21.99176,2.8561 14.56597,2.856 21.42054,2.856 5.14094,0 71.40182,-6.8545 -16.56522,51.4093 -39.98501,155.3704 -3.42729,25.1334 -3.42729,142.8036 0,13.1379 -78.2564,33.7016 -1.14243,7.4258 -1.14243,10.8531 0,7.997 4.56971,11.4243 9.13944,-3.9985 30.27438,-3.9985 4.56972,0 7.997,1.7137 l -5.71214,1.1424 9.13943,0 q 26.27587,0 79.39883,-0.5712 53.12295,-0.5712 79.97004,-0.5712 -1.14242,1.1424 -1.71364,0 1.14243,-1.1425 4.56971,-1.7137 7.99701,-1.7136 13.70916,-2.8561 2.85607,0 9.13943,1.1425 6.28336,1.1424 9.13944,1.1424 6.28335,0 7.42578,-4.5697 -4.56972,-23.991 -56.55024,-32.5593 -36.55774,-2.856 -73.68668,-6.2833 -2.28486,-15.4228 -2.28486,-10.2819 0,-22.2774 6.28336,-78.8276 2.85607,-29.1319 14.28036,-75.4003 8.56822,-17.7077 69.68818,-78.8276 13.13794,58.2639 54.26539,129.0945 l 75.40033,118.8126 q -37.70017,8.5682 -42.26988,9.7107 -26.27587,8.5682 -33.70166,23.4198 2.85606,2.2848 5.71214,7.997 22.84858,-1.1425 64.54726,-4.5698 30.84558,-3.4272 45.69717,-3.4272 62.26239,0 134.23542,6.8545 l -2.28485,1.1425 8.56822,0 q 49.12445,0 55.97903,-6.8546 -6.85458,-25.1335 -63.97604,-33.1305 -62.8336,-8.5682 -66.8321,-12.5667 l -1.14243,-3.4273 0,-3.4273 q 0,-138.2339 37.12895,-175.934 l 53.69417,-54.8367 q 10.28186,55.4079 39.98502,101.6763 89.68067,139.9475 89.10947,147.3733 l -42.2699,7.997 q -24.5622,5.7122 -31.4168,26.2759 l 4.5697,1.1424 0,5.7122 15.994,-1.1425 q 2.2849,1.1425 3.9985,1.1425 l 12.5668,0 q 28.5607,-1.1425 62.2624,-5.7122 l 12.5666,-1.7136 q 1.7137,0 3.9985,-0.5712 l -1.7135,0 q 23.991,0 71.973,3.9985 47.982,3.9985 71.9731,3.9985 2.856,0 8.5681,-0.5713 5.7122,-0.5712 9.1395,-0.5712 0.5712,-1.7136 19.9925,-2.2848 11.4243,0 11.4243,-4.5697 0,-25.1335 -59.4064,-33.1305 -14.2803,-2.2849 -70.2594,-5.7121 -2.2848,-6.8546 -2.2848,-12.5668 0,-134.8066 33.7016,-169.6507 19.4213,-19.4212 57.6927,-58.835 3.4273,18.2788 13.7092,50.2668 13.7091,22.8486 39.4138,64.5473 40.5562,67.9745 75.4003,131.9505 -20.5637,4.5697 -41.1274,9.7107 -24.5623,7.997 -32.5593,23.4198 2.8561,2.2848 4.5698,7.997 21.7061,-1.1425 65.1184,-4.5698 30.2744,-3.4272 44.5548,-3.4272 22.2773,0 67.4033,3.9985 45.1259,3.9985 67.4033,3.9985 4.5697,0 10.2819,-5.7122 -10.2819,-21.7061 -58.8352,-30.2744 -35.4153,-5.7121 -70.8305,-11.9955 -16.5653,-5.7121 -61.12,-83.3973 -33.1305,-57.6927 -53.6942,-101.6761 9.1395,-64.5473 29.7032,-143.9461 11.4243,-9.1395 43.4122,-19.9926 37.1291,-12.5667 47.4109,-18.2788 45.1259,-24.5622 113.6717,-98.2489 44.5547,-47.98199 42.2699,-100.53378 29.1319,11.99552 44.5547,66.83213 13.7092,49.12445 35.9865,49.12445 23.4198,-15.4228 23.4198,-39.98507 0,-43.98347 -52.5517,-78.25633 -34.2729,-19.99253 -84.5398,-53.12294 -23.4198,-19.99252 -70.2593,-59.40635 -4.5698,-3.9985 -10.2819,-14.28034 l 1.1424,-7.99701 q 21.1349,-10.28192 35.4153,-10.28192 15.4228,0 224.4874,78.25642 l 5.7121,-14.28033 q -147.9446,-78.25643 -215.3479,-134.23541 -27.9895,-23.41981 -69.117,-23.41981 -29.7032,0 -48.5532,22.27735 -18.8501,22.27735 -18.8501,52.55171 0,41.12751 57.6927,99.3914 57.6926,58.26381 57.6926,66.83205 -23.9909,-14.28034 -153.0855,-34.27286 -3.4272,-0.57123 -7.997,-0.57123 -27.4183,0 -84.5397,21.70621 -6.8546,-19.4213 -58.2639,-67.40336 -47.9821,-45.69716 -47.9821,-56.55022 13.7092,-9.71069 38.8426,-9.71069 1.7137,0 3.4273,0.57123 100.5338,37.70014 221.0601,77.11396 l 3.4272,-14.28033 -182.7886,-107.38833 q -3.4272,-2.28491 -46.2683,-33.1305 -23.4199,-17.13639 -55.4079,-17.13639 -29.1319,0 -49.6957,21.42056 -20.5637,21.42055 -20.5637,51.12368 0,39.98505 47.9821,87.3958 31.4168,29.70322 70.2594,73.68669 l -2.2849,7.42578 q -81.6837,-34.27286 -150.8007,-34.27286 -62.2624,0 -94.8216,23.4198 -9.71065,-28.56076 -51.98053,-63.40486 -45.12595,-36.55768 -55.40781,-57.12144 l 1.14243,-5.7121 q 19.99251,-9.71069 34.27287,-9.71069 5.71215,0 227.34344,77.68519 l 2.2848,-14.28033 Q 970.1784,679.37472 907.91603,634.2488 q -16.56522,-13.13797 -33.13045,-26.84708 -20.56372,-15.4228 -37.12895,-19.99253 -13.13793,-3.42728 -31.41679,-3.42728 -22.84859,0 -49.12446,18.85008 -7.42579,5.7121 -14.28036,25.13339 -6.85458,19.4213 -6.85458,30.84559 0,39.98505 47.98202,86.25343 29.13195,26.27586 71.40183,71.40178 l -3.42729,8.56824 Q 826.80356,811.32531 706.8485,790.76156 l -2.85608,0 q -15.4228,0 -60.54875,10.85306 -98.24892,23.4198 -225.62977,107.38832 -66.26089,43.41236 -235.34041,121.66876 z m 14.28036,8.5682 q 86.25341,-38.8426 159.94009,-77.6852 84.53976,-49.12439 169.65073,-97.67768 107.95957,-57.69267 180.50383,-57.69267 32.55923,0 145.0885,33.70164 l 11.42429,-4.56965 q 5.71215,-11.42429 5.71215,-18.85016 0,-3.42728 -58.83511,-62.83354 -58.83509,-59.40635 -58.83509,-93.67921 0,-35.41532 14.85157,-45.69716 23.4198,-16.56524 41.12746,-16.56524 33.70165,0 74.8291,36.55777 -2.28485,11.99551 -11.9955,30.27436 l -7.42579,0 q -27.4183,0 -53.12296,14.28034 l -2.28485,15.99402 q 0.57121,3.42728 3.42728,10.85306 67.97454,61.11994 70.2594,63.40485 39.98501,42.84111 39.98501,80.54125 0,28.56068 -65.68967,97.10652 -38.84259,40.5562 -106.81713,72.5442 -24.56222,11.4243 -65.11848,23.4198 -29.13194,26.2758 -86.25339,78.8275 -57.12146,52.5518 -81.11248,85.6822 -30.27437,42.2699 -30.27437,175.9341 0,11.9955 6.85457,23.4198 46.8396,2.2849 103.96106,11.4243 l -1.14243,5.7122 q -7.997,2.2848 -169.65074,2.2848 -6.85457,0 -10.28186,-1.1424 19.99251,-5.7122 40.55624,-10.8531 23.41979,-9.7106 22.27737,-28.5607 -3.9985,-75.4003 -3.9985,-78.2564 0,-53.6942 21.70615,-127.9521 26.84709,-91.9655 26.84709,-105.1034 0,-6.8547 -4.56972,-7.997 -34.27288,13.7091 -82.82612,13.7091 -7.42579,0 -21.70615,-2.8561 -14.28037,-2.856 -21.70615,-2.856 -34.27288,0 -132.52179,39.985 l -60.54875,-44.5547 17.70766,-10.8531 q 374.14555,0 547.22358,-73.6867 94.82163,-40.5562 94.82163,-80.5412 0,-18.85007 -14.28036,-35.70098 -14.28037,-16.85082 -32.55924,-19.13564 l -4.56971,12.56674 q 37.12895,9.13938 37.12895,42.26988 0,19.4213 -30.27438,39.985 -148.51581,100.5337 -597.49047,100.5337 l -2.28486,-3.4273 -5.14093,3.4273 q -7.997,0 -12.56673,-5.7121 z m 694.59696,-389.56831 2.28485,-7.42578 50.83811,33.13041 z m -6.85458,18.27885 2.28486,-5.71219 62.26239,30.27444 z m 332.44697,-18.27885 2.2848,-6.28341 46.8396,29.70322 z m -9.7107,19.4213 3.4273,-6.85464 64.5472,31.41681 z m -526.08867,411.84561 5.71214,-23.4198 q 7.42579,-1.7136 16.56524,-2.2848 237.05405,-19.4213 353.01059,-58.2638 125.096,-42.2699 125.096,-90.25198 0,-46.83961 -44.5547,-58.2639 l -4.5698,13.7092 q 36.5578,9.13938 36.5578,41.12742 0,57.69266 -186.216,100.53376 -138.23388,31.988 -243.33737,35.4153 69.11696,-30.2744 126.23842,-83.3974 71.40183,-66.26077 67.97454,-126.23835 31.41681,-23.4198 91.39431,-23.4198 27.9895,0 76.8284,10.85306 48.8389,10.85315 73.9723,22.84858 l 14.2803,-4.56965 q 3.4274,-17.13648 3.4274,-18.85016 0,-2.28482 -59.692,-64.26156 -59.6919,-61.97683 -59.6919,-95.67847 0,-23.41981 16.2796,-41.12742 16.2796,-17.7077 39.6994,-17.7077 33.7016,0 70.2594,34.27286 l 5.7121,2.28491 q -3.9985,23.99094 -27.9894,31.98795 l -44.5548,12.56675 -1.1425,3.42727 0,4.56974 q 0,15.42279 57.4071,71.40186 57.4071,55.97899 57.4071,81.68362 0,53.69425 -93.108,128.52331 -89.6807,71.973 -146.8021,74.2579 l 0,5.7121 q -18.8501,7.4258 -66.83214,54.8366 -91.39433,90.8232 -107.38834,121.6687 -23.4198,46.2684 -23.4198,158.2264 0,14.8516 13.13794,19.4213 -5.14093,-0.5711 -21.13494,-5.7121 -2.28486,-75.9715 -2.28486,-86.2534 0,-59.4063 20.56372,-131.3794 28.56073,-99.9625 28.56073,-101.6761 0,-2.8561 -2.85607,-5.7122 l 0,-1.1424 -3.42728,-4.5697 q -33.13046,13.7091 -82.82612,13.7091 -6.28336,0 -18.27887,-2.8561 -11.99551,-2.856 -18.27886,-2.856 -16.56523,0 -41.69868,6.8545 z m -79.97005,57.6927 66.83211,-63.4048 q -9.71065,45.6972 -22.27737,131.9505 30.27438,69.117 92.53678,165.081 18.85008,29.132 41.69867,35.9866 18.27886,5.7121 86.82461,14.2803 -43.41231,-5.7121 -107.38834,-5.7121 -12.56673,0 -37.12895,3.9985 -24.56223,3.9985 -36.55775,3.9985 l -4.56971,-2.2849 q 55.97904,-16.5652 55.97904,-23.4198 0,-9.7106 -5.14093,-14.8515 -9.13943,-7.9971 -9.13943,-8.5683 l -23.41981,-37.1289 q -40.55624,-64.5472 -57.12146,-95.964 -29.70316,-55.979 -41.12746,-103.9611 z m 59.97754,67.4034 17.70765,-109.6733 q 31.98803,-7.997 45.12597,-7.997 6.28335,0 19.9925,2.8561 13.70915,2.856 20.56373,2.856 46.26838,0 66.26089,-9.7106 -45.69717,160.5113 -45.69717,249.6208 0,27.4183 2.28486,57.1214 l -4.56972,3.4273 q -21.13493,-5.7121 -45.69716,-50.2668 z m 878.52808,-556.36301 2.2848,-7.42578 44.5548,29.1319 z m -7.997,18.27885 2.2848,-5.71219 62.8336,30.27444 z M 926.76612,1137.4888 q 21.70614,-22.8486 66.83208,-62.2624 -11.9955,49.6957 -23.4198,131.9505 22.2774,58.8352 90.8231,165.081 17.7077,27.4183 44.5547,36.5578 18.8501,6.2833 85.6823,13.7091 -57.1215,-5.7121 -106.8171,-5.7121 -18.8501,0 -77.114,7.997 l -1.1425,-2.2849 q 55.9791,-10.2818 54.8366,-27.9895 -68.5457,-106.2459 -78.2564,-123.9535 -42.84105,-74.8291 -55.97898,-133.093 z m 59.40628,61.6911 q 0,-8.5681 17.7077,-103.961 44.5547,-6.8546 45.6972,-6.8546 5.1409,0 15.7083,2.8561 10.5675,2.856 15.7085,2.856 2.856,0 71.4018,-6.8545 l -34.8441,149.6583 q -8.5683,38.8425 -8.5683,145.0884 0,9.1394 -2.2848,12.5667 -16.5652,-3.4273 -32.5592,-30.2744 -87.9671,-149.6582 -87.9671,-165.081 z m -99.39131,214.2055 q 18.27887,0 34.27287,3.4273 l -1.71364,6.8546 -20.56372,0 q -3.42729,-3.9985 -11.99551,-10.2819 z m 120.52631,-335.8741 q 0,-20.5638 18.8501,-22.2774 25.1334,-0.5712 74.8291,-3.4273 253.6193,-26.8471 361.5788,-91.3943 9.7106,-5.7121 26.5615,-25.4191 16.8508,-19.70684 16.8508,-29.41754 0,-45.69715 -46.8396,-57.12144 l -3.9985,13.7092 q 35.4153,10.28183 35.4153,41.12742 0,6.85456 -14.2804,25.70466 -34.2728,45.126 -190.2144,78.8276 -112.5293,23.991 -217.6328,31.4168 62.2624,-27.9895 121.0976,-81.6837 73.1154,-65.68965 73.1154,-117.67021 0,-2.28483 -3.9985,-13.70912 49.1244,-19.99252 87.967,-19.99252 62.2624,0 149.6582,32.55927 2.8561,1.14237 5.7122,1.14237 14.2804,0 14.2804,-18.27885 0,-11.99551 -59.1207,-69.68818 -59.1207,-57.69267 -59.1207,-93.10799 0,-24.56217 15.4228,-42.8411 15.4228,-18.27884 39.4137,-18.27884 26.8472,0 76.5428,35.41531 -2.2849,9.13947 -11.9955,31.41682 l -7.4258,0 q -26.2759,0 -51.9805,14.28034 -2.8561,13.13797 -2.8561,17.13647 0,10.28184 15.4228,24.56217 28.5607,26.84709 81.6837,70.25942 37.1289,21.70612 74.8291,43.41233 44.5548,30.27435 44.5548,66.83204 0,13.13797 -12.5668,25.70467 -9.1395,0 -13.138,-23.41976 -13.7091,-77.68519 -73.6866,-97.10649 l -2.2849,4.56973 -4.5697,1.14246 q 4.5697,15.99402 4.5697,23.4198 0,9.13938 -11.9955,35.98646 -5.1409,12.56674 -18.2788,35.41532 -24.5623,34.84408 -78.2565,73.68668 -51.9804,38.2713 -93.6792,52.5517 -31.4167,10.8531 -48.5532,21.9918 -17.1364,11.1387 -114.2429,108.2452 -58.2638,58.2639 -62.8336,94.8216 -10.853,85.1109 -10.853,125.0959 0,10.2819 5.7121,18.2789 -9.1394,0 -14.8516,-4.5697 2.2848,-7.997 2.2848,-11.4243 -3.9984,-76.5427 -3.9984,-78.2564 0,-49.1244 16.5652,-117.0989 15.994,-57.6927 31.988,-114.8142 l -4.5697,-9.1394 q -33.1304,13.7091 -82.255,13.7091 -5.7121,0 -16.2795,-2.8561 -10.5675,-2.856 -16.2796,-2.856 -6.8546,0 -21.135,1.7136 -14.2804,1.7137 -21.1349,1.7137 z m 242.1949,61.1199 q 21.7062,-22.8486 65.6897,-61.1199 -10.853,45.1259 -22.2773,130.8081 25.1334,46.8396 80.5412,145.0885 27.9896,49.6956 54.8366,56.5502 7.4258,1.7137 84.5398,12.5667 -89.1095,-5.7121 -109.102,-5.7121 -22.2774,0 -70.2594,7.997 l -5.7121,-2.2849 q 16.5652,-3.4273 46.8396,-12.5667 8.5681,-3.9985 8.5681,-15.4228 -38.8425,-61.6911 -78.2563,-123.3823 -45.126,-78.2564 -55.4079,-132.5218 z m -35.9865,274.7542 q 10.2819,1.1424 30.2744,4.5697 l 0,1.1424 q 0,5.7122 -11.9955,5.7122 -5.7122,0 -9.1394,-1.1424 -4.5698,-7.997 -9.1395,-10.2819 z M 818.80655,633.10634 836.5142,645.67309 q 6.85459,-5.14096 16.56523,-14.85157 l -14.28037,-17.7077 -6.85457,5.71219 -3.42729,-3.42728 q -3.42728,5.7121 -9.71065,17.70761 z m 325.59225,0 13.7092,12.56675 q 15.4228,-7.42579 18.8501,-14.85157 l -11.4243,-16.56525 -7.4258,4.56974 -4.5697,-3.42728 z m 321.5939,0 16.5652,12.56675 q 11.4243,-9.13947 15.9941,-14.85157 l -11.4243,-16.56525 -7.4258,4.56974 -4.5698,-3.42728 z"
     id="path4"
     inkscape:connector-curvature="0"
     style="fill:none;stroke:#000000;stroke-width:0.57121456" />
  <path
     style="fill:#000000;fill-opacity:1;stroke:#000000;stroke-width:0.646833;stroke-miterlimit:4;stroke-dasharray:none;stroke-opacity:1"
     d="m 387.31614,1439.0454 c -2.19956,-3.0937 -2.88009,-6.667 -2.39009,-12.5495 0.24939,-2.9938 0.67027,-5.794 0.93521,-6.2228 0.26493,-0.4287 5.70108,-2.2428 12.08024,-4.0312 39.75917,-11.1468 61.73903,-20.5598 65.10883,-27.8834 0.85196,-1.8518 1.04695,-9.007 1.37993,-50.6688 0.38116,-47.6904 1.06767,-73.0434 2.37024,-87.5343 1.38563,-15.4144 24.16333,-108.2856 36.81159,-150.0915 2.19228,-7.2461 3.89909,-13.2439 3.79286,-13.3285 -0.10708,-0.085 -8.19766,0.6606 -17.98101,1.6559 -9.78335,0.9953 -25.93801,2.5961 -35.89924,3.5572 -20.56459,1.9842 -21.75333,1.9335 -41.79321,-1.7833 -27.83546,-5.1627 -47.2711,-1.2986 -102.12713,20.3041 -38.08847,14.9996 -43.13961,16.6763 -50.23719,16.6763 l -5.3429,0 -33.17396,-23.8257 -33.17397,-23.8257 -1.42864,-6.4138 c -0.78577,-3.5275 -1.57414,-6.9984 -1.75196,-7.713 -0.25557,-1.0271 0.81896,-2.179 5.12912,-5.4981 2.99883,-2.3093 5.4609,-4.3939 5.47125,-4.6325 0.0103,-0.2385 -0.86138,-0.6271 -1.93718,-0.8633 -5.69154,-1.2501 -8.96595,-7.5039 -9.98906,-19.0782 l -0.37165,-4.2044 16.66939,-7.7388 c 64.15179,-29.7828 127.51921,-61.3794 167.53347,-83.5366 20.92718,-11.5881 36.81119,-21.06763 55.15222,-32.91467 70.41204,-45.48133 126.35892,-74.18012 181.11324,-92.90472 31.89265,-10.90649 83.37011,-22.54022 99.79498,-22.55335 4.17873,-0.003 19.53038,2.50629 45.74244,7.47777 48.90841,9.27618 84.04696,18.07657 98.25943,24.60891 2.63566,1.21136 4.96179,2.03279 5.1693,1.82532 0.20742,-0.20742 1.14643,-2.31838 2.08681,-4.69091 l 1.70963,-4.31367 -6.55553,-7.08372 c -7.74077,-8.36453 -44.29866,-45.04756 -65.46874,-65.69284 -19.88291,-19.39004 -30.30614,-32.73284 -38.14997,-48.83589 -6.56949,-13.48684 -8.88545,-22.62772 -8.9317,-35.25241 -0.0276,-7.52756 0.21882,-9.70914 1.78618,-15.81332 3.92768,-15.29682 10.73618,-31.44185 15.6741,-37.16805 5.1169,-5.93377 22.97041,-15.92659 34.20005,-19.1422 9.2691,-2.65419 16.69476,-3.26778 28.59343,-2.36268 10.02885,0.76285 18.03063,2.16868 24.44752,4.29511 10.38406,3.44106 26.53504,13.3083 39.78024,24.30323 13.26738,11.01339 26.69771,21.59855 33.31189,26.25493 38.52893,27.12427 95.8372,61.26382 162.241,96.64989 l 10.2353,5.4543 -0.3925,2.58734 c -0.2159,1.4231 -0.6993,4.38058 -1.0743,6.57233 l -0.6816,3.98502 -4.3098,-1.48787 c -2.3704,-0.81828 -25.7038,-8.96565 -51.852,-18.10527 -90.40917,-31.60077 -157.52618,-54.45466 -167.36601,-56.98946 -4.27697,-1.1017 -4.87938,-1.10774 -10.91582,-0.10881 -7.09517,1.17406 -14.01513,3.28796 -22.01696,6.72553 l -5.31603,2.28373 -0.4347,3.47923 c -0.37616,3.00999 -0.21589,3.85245 1.18753,6.24665 7.24518,12.35998 22.54931,27.95765 49.64127,50.59344 16.1441,13.48861 34.5707,31.61606 41.27512,40.60493 5.7713,7.73784 11.10108,16.67039 13.0397,21.85427 0.80395,2.14956 1.69667,4.05354 1.98397,4.2311 0.28721,0.17755 2.60032,-1.02138 5.14011,-2.66443 14.19547,-9.183 32.84062,-15.23641 57.07182,-18.52913 9.0986,-1.23641 13.4291,-1.42846 32.1821,-1.4269 16.4046,10e-4 24.0261,0.2746 31.3715,1.12466 36.4441,4.21795 70.9952,13.22661 109.9265,28.66159 5.6728,2.24909 10.3926,4.01093 10.4883,3.91516 0.095,-0.095 0.7301,-1.9602 1.4095,-4.14322 l 1.2354,-3.96912 -10.3476,-11.52365 c -16.3762,-18.23717 -35.8219,-38.64585 -49.9122,-52.38396 -7.1467,-6.96795 -15.7272,-15.61527 -19.068,-19.21624 -21.6104,-23.29364 -34.3189,-45.51865 -37.9566,-66.37928 -1.5213,-8.72433 -0.9837,-21.33634 1.2815,-30.06254 5.7963,-22.32909 23.9027,-42.28978 45.0102,-49.61963 18.449,-6.40662 44.2028,-4.16993 64.3628,5.58988 6.1636,2.98389 7.7725,4.07429 39.7802,26.96041 l 20.3753,14.56867 90.2332,52.92949 c 49.6283,29.11123 90.4891,53.15419 90.802,53.42882 0.466,0.40914 -1.7464,11.43418 -2.6072,12.9927 -0.2406,0.4354 -61.297,-19.79868 -98.5441,-32.65736 -36.0613,-12.44932 -74.3149,-26.13733 -109.5303,-39.19247 -15.4911,-5.74291 -16.0583,-5.83781 -27.2749,-4.56346 -3.2018,0.36372 -8.2957,1.24348 -11.3196,1.95488 -5.7071,1.3428 -16.0431,5.99026 -16.6105,7.46889 -0.9969,2.59808 4.3688,11.3835 13.4238,21.97874 3.318,3.88238 14.4884,15.35129 24.8233,25.48648 29.2958,28.73007 43.1118,42.76105 50.1932,50.97466 6.7971,7.88368 14.3071,18.52818 16.4081,23.25656 0.6719,1.51204 1.6002,2.74904 2.0631,2.74904 0.4628,0 4.2754,-1.27561 8.4723,-2.83477 19.513,-7.249 44.3573,-14.42554 58.4071,-16.87153 12.7463,-2.21904 19.1903,-2.06455 37.8398,0.90723 71.4409,11.38389 120.8174,22.37152 136.8082,30.44366 2.1125,1.06647 4.0004,1.93898 4.1952,1.93898 0.9882,0 -0.8623,-4.12588 -3.9163,-8.73226 -6.0706,-9.15616 -20.4648,-25.12606 -50.4704,-55.99532 -21.6364,-22.25929 -31.2032,-33.61786 -41.3671,-49.11504 -14.8453,-22.63495 -20.8329,-41.64317 -19.0735,-60.54982 1.725,-18.53749 8.5162,-33.96794 20.649,-46.91776 6.3942,-6.82481 11.5279,-10.6449 18.9296,-14.08582 10.6558,-4.95366 22.6405,-6.64765 37.4031,-5.28676 15.3576,1.41568 27.2003,4.58583 38.9286,10.42052 7.7618,3.86141 13.605,7.79063 23.2307,15.62125 41.5267,33.78267 107.7851,75.42673 191.4112,120.30401 9.7834,5.25016 18.1775,9.77868 18.6536,10.06341 0.6854,0.41 0.3248,1.86288 -1.7326,6.98153 -1.6652,4.1428 -2.9051,6.3913 -3.4529,6.26182 -0.4701,-0.11053 -13.6621,-4.96504 -29.3155,-10.78655 -118.9768,-44.24759 -184.9928,-66.9548 -194.6557,-66.9548 -3.5693,0 -12.689,1.79497 -18.1585,3.574 -5.9559,1.93726 -17.1331,6.71817 -17.1386,7.33087 0,0.22814 -0.2883,2.15237 -0.6361,4.2762 -0.6235,3.80721 -0.5971,3.92089 1.8791,8.08542 1.3814,2.32314 3.7358,5.61326 5.2322,7.31134 1.4963,1.69806 12.8046,11.58669 25.1297,21.97463 12.3251,10.38797 28.0853,23.72735 35.0226,29.64309 12.5744,10.72277 16.1906,13.27667 44.6314,31.52026 12.4306,7.9737 40.6781,25.45355 50.7764,31.42096 12.585,7.43687 28.806,21.4085 36.858,31.74693 10.4192,13.37777 15.4594,25.29778 17.1651,40.59524 1.9143,17.16732 -3.8413,31.03445 -17.4464,42.03385 -4.72,3.8161 -4.8858,3.8896 -7.9469,3.5271 -8.8623,-1.0495 -17.8896,-10.5785 -24.6646,-26.03508 -2.3804,-5.43061 -4.7097,-12.18375 -10.0923,-29.25955 -9.5879,-30.41702 -22.2249,-49.56857 -38.2755,-58.00715 -2.3645,-1.24315 -4.4748,-2.2602 -4.6895,-2.2602 -0.2149,0 -0.3905,2.89584 -0.3905,6.43521 0,28.9551 -12.1653,58.77607 -35.1084,86.06192 -11.5611,13.74945 -43.498,46.09525 -61.4822,62.26945 -16.282,14.6433 -33.7924,28.3386 -47.3584,37.0401 -13.5639,8.7002 -22.8959,12.7286 -56.9359,24.5784 -22.1959,7.7266 -34.3956,13.0359 -42.3349,18.424 l -3.5681,2.4216 -5.3108,21.5857 c -6.3449,25.7891 -11.8715,50.9649 -16.3108,74.3026 -3.6302,19.0842 -7.7882,44.5126 -7.7882,47.6294 0,4.0946 26.6984,55.8299 49.024,94.9973 30.4635,53.444 49.429,80.8191 61.7577,89.1421 3.6837,2.4868 3.2956,2.4105 63.2164,12.4332 29.8238,4.9886 44.1114,9.301 55.7419,16.8247 5.7353,3.7102 9.6562,7.3639 12.2652,11.4298 l 2.1015,3.275 -1.9041,1.5607 c -4.4444,3.6432 -4.5624,3.6619 -20.3335,3.2229 -14.6647,-0.4083 -28.3125,-1.2974 -56.2799,-3.6668 -53.3062,-4.516 -70.0784,-4.7879 -99.3231,-1.61 -8.8466,0.9613 -54.4733,4.4669 -67.9759,5.2228 l -7.8547,0.4397 -1.3466,-2.8367 c -0.7405,-1.5602 -1.7011,-3.322 -2.1343,-3.9153 -1.0677,-1.4621 1.4911,-5.1232 7.4134,-10.6062 3.3466,-3.0985 6.4244,-5.1051 12.3232,-8.0344 8.1871,-4.0655 15.7465,-6.2281 43.2766,-12.3808 5.2474,-1.1727 9.5408,-2.3792 9.5408,-2.6809 0,-1.081 -28.9836,-52.9352 -46.9025,-83.9128 -14.6076,-25.253 -26.9985,-46.0674 -41.587,-69.858 -27.9126,-45.5191 -25.7009,-41.4413 -29.9948,-55.3042 -2.0936,-6.7594 -5.1406,-17.8203 -6.7712,-24.5797 -1.6305,-6.7594 -3.0891,-12.7089 -3.2412,-13.2212 -0.2484,-0.8358 -19.804,18.7357 -53.9282,53.9717 -10.6868,11.035 -14.0423,15.9127 -19.1803,27.8819 -12.1291,28.2553 -18.6879,74.4393 -19.0512,134.1498 -0.093,15.2123 0.055,18.3618 1.0222,21.7515 l 1.1306,3.9635 7.2138,0.4383 c 15.7264,0.9556 43.2881,3.0494 52.1688,3.9631 31.5655,3.2476 52.5557,9.4937 62.5261,18.6062 4.6694,4.2676 6.7218,7.899 7.1532,12.6566 0.5045,5.5626 -0.2634,5.9385 -13.6083,6.6635 -5.7581,0.3129 -11.9247,0.8718 -13.7035,1.2421 -13.824,2.8778 -39.9485,2.319 -94.1142,-2.0128 -20.7193,-1.657 -42.9037,-3.0669 -56.5979,-3.5971 -10.263,-0.3972 -12.1821,-0.2709 -28.7841,1.8933 -35.0253,4.5662 -50.1807,5.662 -75.1649,5.4348 l -19.2139,-0.1748 -0.1911,-2.5873 c -0.1588,-2.1424 -0.4481,-2.6238 -1.6859,-2.7993 -0.8223,-0.1157 -1.648,-0.6105 -1.8349,-1.0979 -0.6273,-1.6346 3.8935,-8.9907 8.1638,-13.2837 8.1943,-8.238 13.0059,-9.9894 42.7082,-15.5456 11.9179,-2.2295 21.7883,-4.1446 21.9342,-4.2559 2.3406,-1.7847 -21.1437,-41.3251 -73.1183,-123.1089 -22.50064,-35.4054 -24.26054,-38.3437 -30.83471,-51.48 -10.45359,-20.8883 -17.6747,-41.4248 -23.1376,-65.8023 -1.19046,-5.3126 -2.24935,-9.7287 -2.35297,-9.8135 -0.50569,-0.4138 -56.95715,58.0246 -60.19797,62.3168 -15.48849,20.5134 -25.55036,59.0843 -29.55384,113.2915 -0.9884,13.3835 -2.23607,56.9314 -1.71049,59.7064 0.25647,1.354 0.99876,2.9943 1.64969,3.6451 2.27788,2.2779 21.32995,6.0287 55.98913,11.0228 21.70292,3.1271 29.28497,4.5929 39.1334,7.5652 12.96673,3.9135 22.57511,9.1481 28.56796,15.5637 2.71114,2.9024 6.36102,8.8828 6.36102,10.4227 0,1.0504 -4.51839,2.7816 -10.41,3.9886 -12.21752,2.5031 -41.47674,3.2473 -55.56696,1.4133 -15.47794,-2.0147 -60.44843,-4.8999 -93.79079,-6.0174 -28.19034,-0.9449 -48.72225,-0.468 -69.85797,1.6224 -31.9296,3.1579 -76.32428,6.1626 -76.32907,5.1659 -10e-4,-0.3188 -1.13571,-2.0738 -2.52034,-3.9001 -2.44217,-3.221 -2.48568,-3.3684 -1.45263,-4.921 5.06231,-7.6078 15.43343,-14.7881 27.87126,-19.2962 2.29194,-0.8308 13.78939,-3.7196 25.5499,-6.4197 11.76053,-2.7 21.33496,-5.1306 21.27653,-5.4011 -0.0587,-0.2707 -17.11953,-27.3279 -37.91355,-60.1272 -39.33319,-62.042 -42.06351,-66.5135 -51.02683,-83.568 -18.28686,-34.7944 -31.60085,-67.9767 -38.76906,-96.6234 l -2.1655,-8.6542 -15.54011,15.7775 c -28.14406,28.5741 -47.62498,50.8905 -53.56609,61.3629 -1.12069,1.9754 -2.79681,8.0027 -5.21634,18.7581 -6.67128,29.6556 -8.58836,41.2535 -11.70758,70.8282 -4.78723,45.3898 -5.6744,62.3314 -3.77679,72.1219 l 1.19099,6.1449 12.27359,1.09 c 6.75048,0.5994 23.18891,1.9912 36.52983,3.0927 24.90378,2.0563 30.65955,2.8276 41.53452,5.5654 19.21552,4.8376 32.56741,12.8454 37.33881,22.3938 2.27556,4.5538 2.49314,6.9742 0.76733,8.536 -1.96548,1.7787 -5.05657,1.8826 -14.31056,0.481 l -8.73224,-1.3226 -9.05567,2.0018 c -11.90132,2.6307 -17.82457,2.8293 -102.27895,3.4282 -64.33079,0.4563 -66.76841,0.4304 -68.5381,-0.7276 -1.61239,-1.0552 -3.21149,-1.2001 -13.18073,-1.1953 -11.09614,0.01 -17.31928,0.7262 -22.8082,2.6415 -2.30731,0.805 -2.45796,0.7677 -3.64625,-0.9036 z m 189.8987,-13.7278 c 9.15817,-0.3506 17.12838,-0.7891 17.71157,-0.974 0.66354,-0.2106 1.2991,-1.544 1.6984,-3.5638 0.76492,-3.8686 2.90427,-3.1308 -17.61467,-6.0747 -26.98129,-3.8712 -52.00257,-6.5631 -75.65188,-8.1392 -5.67696,-0.3784 -10.37242,-0.7488 -10.43437,-0.8232 -0.96025,-1.1542 -4.3376,-8.9986 -5.2327,-12.1536 -1.039,-3.6622 -1.16214,-6.483 -1.04246,-23.8811 0.39619,-57.6188 6.05724,-104.0101 16.39056,-134.3176 7.30651,-21.4299 16.80876,-34.9153 47.6535,-67.6292 18.00894,-19.1003 43.86999,-43.4327 112.94527,-106.2691 18.72546,-17.0342 20.14779,-18.1861 23.91532,-19.3686 39.6845,-12.4561 61.86068,-21.5266 88.68583,-36.2744 37.97438,-20.8772 63.27431,-40.5577 90.61652,-70.4894 24.73419,-27.07667 40.23256,-47.65453 48.22967,-64.03649 4.68372,-9.59459 6.42371,-15.7266 6.42029,-22.62614 -0.0104,-20.44692 -9.99487,-43.6501 -29.00212,-67.39787 -7.7556,-9.68985 -13.53614,-15.23197 -49.46843,-47.42799 -29.7324,-26.64078 -31.47764,-28.32645 -32.81508,-31.69482 -1.91138,-4.8138 -2.20403,-7.99982 -1.31861,-14.35453 1.30859,-9.39177 0.54212,-8.33852 8.98356,-12.34566 14.334,-6.80439 25.31146,-9.44771 41.4447,-9.97968 l 11.23704,-0.37046 4.09517,-8.48009 c 4.03197,-8.34923 6.87415,-15.90882 7.72306,-20.5418 l 0.43228,-2.35924 -7.65985,-6.2638 c -19.57621,-16.0084 -38.58735,-25.96234 -55.73099,-29.17983 -8.34032,-1.56524 -19.41092,-1.0093 -26.63802,1.33779 -9.69724,3.14936 -25.91639,12.3606 -30.62871,17.39477 -6.68041,7.13669 -10.36307,19.30099 -11.18555,36.94744 -0.79255,17.00206 4.01203,30.8488 17.9245,51.65914 11.4313,17.09898 19.83761,26.66636 57.19988,65.10025 37.575,38.65274 42.37231,43.9878 42.36571,47.11518 -0.006,2.25741 -0.98978,5.77334 -3.3202,11.8503 l -1.90013,4.95494 -5.69045,2.27757 -5.69044,2.27757 -5.44278,-1.60151 c -62.5017,-18.38981 -101.46121,-27.92185 -126.96009,-31.06278 -14.96638,-1.84355 -34.97181,-0.52849 -56.36175,3.70495 -34.26859,6.78233 -71.06941,20.16345 -114.48944,41.62941 -19.01705,9.40163 -54.35871,29.35321 -150.5616,84.99718 -60.10141,34.7628 -106.38288,58.3449 -185.11959,94.3254 -8.88012,4.0579 -16.23661,7.469 -16.34775,7.5802 -0.11123,0.1105 -0.0278,0.6561 0.1851,1.211 0.6553,1.7077 5.33919,4.3689 8.97449,5.099 3.23943,0.6506 3.61069,0.5886 5.93629,-0.9917 l 2.48075,-1.6858 1.35917,1.7046 1.35916,1.7047 35.20672,-0.4429 c 114.15351,-1.4357 199.96384,-6.51 280.35656,-16.5785 123.78511,-15.503 214.60165,-41.6365 274.56976,-79.0108 21.41337,-13.3455 33.90714,-26.4667 37.18536,-39.05256 2.56068,-9.8311 -0.51743,-23.24034 -7.43941,-32.40843 -4.61438,-6.11169 -13.55573,-11.83381 -23.5902,-15.09679 -2.49031,-0.80982 -4.60945,-1.53882 -4.70921,-1.61981 -0.44196,-0.35941 3.93003,-11.31998 4.51531,-11.31998 0.35975,0 2.41919,0.45733 4.57664,1.01638 16.39101,4.24734 32.83959,21.03609 38.61192,39.4106 1.9969,6.35667 2.4526,16.13116 1.01016,21.6689 -6.26646,24.05699 -37.85372,48.38089 -93.4875,71.99039 -109.7966,46.5948 -278.03671,70.9456 -506.66626,73.3339 l -40.6231,0.4244 -9.02133,5.5347 c -4.96174,3.0442 -9.01138,5.6891 -8.99922,5.8776 0.0473,0.7342 60.93828,44.9628 61.64578,44.7769 0.41332,-0.1088 6.71705,-2.5453 14.0083,-5.415 48.71914,-19.1745 82.68077,-29.8166 106.08387,-33.2419 9.62049,-1.4081 18.27306,-0.9752 32.49789,1.626 17.16863,3.1395 21.92375,3.4806 37.26245,2.6733 25.10045,-1.3212 41.60162,-4.1821 60.8237,-10.545 9.03137,-2.9896 9.54538,-2.927 11.05503,1.3447 0.85351,2.415 0.83504,3.3873 -0.17634,9.3189 -2.40998,14.1333 -8.09189,36.0025 -22.13942,85.2127 -12.68762,44.4463 -17.31711,64.0079 -21.27821,89.9098 -4.61679,30.1894 -4.96485,47.085 -2.05871,99.9357 2.1008,38.2048 2.09191,38.3805 -2.27388,44.9183 -4.89138,7.3249 -13.08766,12.1395 -26.44186,15.5324 -14.84415,3.7713 -32.0117,8.5696 -32.58761,9.1081 -0.31311,0.2927 0.56009,0.7176 1.9405,0.9438 1.38045,0.2265 2.94648,0.5282 3.48013,0.6705 1.90452,0.5081 140.66612,-0.3843 157.00212,-1.0098 z m 131.02883,-1.9098 c 5.05385,-0.69 15.30138,-2.2122 22.77229,-3.3826 l 13.58351,-2.1282 29.7543,0.031 c 30.61307,0.031 47.53377,0.7316 71.15163,2.9446 7.47093,0.7 15.47549,1.4039 17.78791,1.5644 8.28614,0.5747 0.6663,-0.928 -14.87716,-2.9341 -26.70028,-3.446 -52.19269,-7.6568 -63.06621,-10.4172 -14.26105,-3.6205 -24.5015,-10.0966 -35.47411,-22.4341 -9.93805,-11.1743 -44.20794,-65.9916 -67.81161,-108.47 -14.88984,-26.7965 -35.45996,-68.4277 -35.45996,-71.7662 0,-0.7934 1.31464,-10.1485 2.92154,-20.7891 6.09634,-40.3704 11.13699,-70.2478 16.23553,-96.2326 1.59616,-8.1345 2.80536,-14.8865 2.68728,-15.0046 -0.11744,-0.1175 -15.42928,14.2161 -34.02492,31.8537 -32.98884,31.2894 -33.80027,32.1175 -33.40004,34.0862 1.96181,9.6498 10.15786,34.8823 16.30824,50.2068 16.35956,40.762 35.92334,75.8441 91.49196,164.0648 12.37279,19.6431 13.96596,21.8792 19.02609,26.7044 6.07528,5.7932 7.89337,8.9365 8.48513,14.6702 0.31709,3.0721 0.17271,3.7344 -1.1124,5.1024 -3.64486,3.8797 -22.3764,11.2441 -49.32322,19.3914 -3.11288,0.9411 -5.65979,1.8322 -5.65979,1.9801 0,0.1485 1.09151,0.867 2.42563,1.598 2.164,1.1858 3.17867,1.2908 9.40765,0.9725 3.8401,-0.1962 11.11697,-0.9212 16.17082,-1.6111 z m 311.90663,0.3017 c 17.1504,-2.2693 31.8181,-3.9721 44.2676,-5.1391 22.4575,-2.1053 69.3842,-0.709 114.6916,3.4126 6.6705,0.6069 12.1281,0.8872 12.1281,0.6233 0,-0.6748 -1.3718,-0.8991 -14.8771,-2.4324 -41.2634,-4.6845 -68.7394,-10.0813 -79.8839,-15.6905 -4.6427,-2.3367 -12.841,-7.9436 -17.4645,-11.944 -8.3853,-7.2553 -13.1066,-13.5579 -29.2161,-39.0021 -36.068,-56.9679 -65.928,-111.915 -77.4427,-142.5067 l -1.6133,-4.2862 3.1543,-21.2029 c 5.786,-38.8934 13.5607,-81.7282 18.9934,-104.6444 0.8435,-3.5575 1.4425,-6.5753 1.3314,-6.7061 -0.559,-0.658 -40.05349,35.2827 -56.05853,51.0142 l -12.17444,11.9664 2.24859,8.7323 c 9.54227,37.0563 27.57953,78.8376 53.75418,124.5153 8.7274,15.2301 29.7105,48.622 65.5793,104.3608 11.99,18.6321 13.0128,20.4479 12.6391,22.4398 -1.7384,9.2663 -18.4114,17.4251 -48.011,23.4938 -3.3075,0.6782 -6.169,1.3884 -6.359,1.5786 -0.424,0.424 0.9193,3.0436 1.5609,3.0436 0.2542,0 5.9928,-0.7318 12.7522,-1.6262 z m 218.6296,0.9138 c 3.387,-0.9233 5.4981,-2.9235 5.4981,-5.2095 0,-2.1328 0.7105,-1.9063 -12.8536,-4.096 -11.5801,-1.8695 -18.1944,-2.6151 -18.1944,-2.0511 0,0.2196 1.3079,1.6049 2.9064,3.0785 1.5986,1.4735 3.5411,3.7353 4.3168,5.0263 0.7756,1.291 1.4904,2.4537 1.5885,2.5838 0.9684,1.2856 12.7472,1.7558 16.7382,0.668 z m 109.3147,-1.5191 c 13.0577,-2.0501 28.5239,-3.9767 39.7803,-4.9553 14.2683,-1.2406 41.6611,-0.2596 106.9402,3.8299 9.9003,0.6202 18.1313,0.9162 18.291,0.6578 0.3711,-0.6003 1.5396,-0.411 -35.3214,-5.7255 -50.8126,-7.3259 -51.6204,-7.4825 -58.8164,-11.4045 -14.7039,-8.0136 -29.0564,-24.6735 -44.4933,-51.646 -13.9903,-24.4449 -55.3071,-98.5607 -70.8869,-127.16 l -10.0738,-18.4921 1.8617,-13.5261 c 6.1465,-44.6579 13.9625,-90.0861 19.3536,-112.4888 0.6845,-2.8445 1.1209,-5.2955 0.9698,-5.4467 -0.152,-0.152 -0.9287,0.3019 -1.7277,1.0068 -30.3314,26.7614 -37.2517,33.1098 -52.699,48.3441 -9.7342,9.6 -12.375,12.5569 -12.1547,13.6097 6.0216,28.7777 17.2488,58.9961 34.9859,94.1655 11.4328,22.6693 18.504,34.766 41.0248,70.1814 11.99,18.8552 29.8802,47.06 39.7558,62.6774 l 17.9556,28.3952 -0.71,3.5358 c -0.8455,4.2099 -2.6756,7.3743 -5.378,9.2985 -2.1144,1.5057 -26.4746,8.6707 -41.594,12.2341 l -9.0557,2.1342 3.2342,1.4983 c 3.6519,1.6918 3.2803,1.7061 18.7581,-0.7238 z m -427.2785,-2.67 c 0.44403,-1.9843 0.65715,-3.7581 0.47339,-3.9418 -0.99617,-0.9961 -15.69334,-2.8546 -25.00774,-3.1623 l -10.67273,-0.3525 2.24251,1.8129 c 1.23347,0.9971 4.14418,3.4695 6.46833,5.4942 l 4.22582,3.6813 10.73154,0.038 10.73148,0.038 0.8074,-3.6077 0,-4e-4 z m -97.62642,-17.7291 c 0,-0.3509 -0.98668,-1.0504 -2.1925,-1.5542 -3.23612,-1.3521 -7.22983,-5.2365 -8.92759,-8.6832 -1.47267,-2.9897 -1.49201,-3.3197 -1.41066,-24.0534 0.24558,-62.5578 8.31002,-113.8707 22.27339,-141.7222 9.05094,-18.0531 33.21623,-46.6033 81.47358,-96.2574 29.6826,-30.5417 52.1534,-51.885 69.5218,-66.0335 6.5993,-5.3758 17.4073,-12.6576 21.5071,-14.4901 2.5949,-1.1597 2.7491,-1.3792 2.7491,-3.9116 l 0,-2.6828 6.9583,-0.7738 c 30.918,-3.4379 69.4323,-21.8596 114.8244,-54.9214 44.5654,-32.4597 80.7961,-67.2747 99.1507,-95.27624 11.7953,-17.99493 17.5009,-33.22526 18.2014,-48.58721 0.3304,-7.24475 0.2106,-8.69238 -1.0688,-12.90476 -3.5528,-11.69682 -12.4045,-25.47422 -28.2316,-43.94182 -3.5063,-4.09121 -17.0179,-18.20834 -30.0258,-31.37139 -30.7277,-31.09437 -39.8961,-41.32214 -48.3146,-53.89737 -4.5951,-6.86417 -6.62,-11.76804 -6.6398,-16.0802 -0.029,-6.40909 -1.5361,-5.60348 23.6799,-12.661 26.9613,-7.54599 32.2468,-9.79199 38.986,-16.56648 4.8893,-4.91483 7.8019,-9.97782 9.7182,-16.89308 0.7366,-2.65849 1.3395,-5.01825 1.3395,-5.24389 0,-0.22556 -1.3377,-0.92122 -2.9728,-1.54555 -1.635,-0.62451 -4.7641,-2.73834 -6.9535,-4.69757 -18.304,-16.38011 -38.2059,-27.0821 -55.6187,-29.90823 -5.9511,-0.96594 -18.225,-0.78685 -23.0711,0.33644 -15.3242,3.55218 -28.8356,14.09689 -37.1783,29.01503 -5.9607,10.6587 -8.7093,25.40281 -6.7735,36.33455 2.8255,15.95648 13.0273,34.55073 31.7386,57.84864 9.3336,11.62135 16.8771,20.00223 35.5114,39.45313 32.9008,34.34275 49.8145,52.56372 51.0395,54.98448 0.2701,0.53366 -0.2361,4.96355 -1.1247,9.84424 l -1.6156,8.87398 -6.9713,2.32292 c -6.5531,2.18359 -7.0844,2.26436 -8.8588,1.34677 -11.087,-5.73332 -41.9591,-15.22278 -69.3507,-21.31703 -39.8089,-8.8569 -63.5309,-11.89296 -87.6459,-11.2174 -33.4783,0.9378 -60.32048,7.75059 -78.9769,20.04487 l -4.5911,3.02548 -0.4119,9.54719 c -0.22659,5.25094 -0.996,12.45794 -1.7098,16.0155 -5.35473,26.68828 -22.80797,56.60229 -48.77741,83.6022 -24.59098,25.5668 -48.16318,45.2306 -77.37087,64.5424 -17.184,11.3619 -27.69576,17.3544 -48.00351,27.3657 -9.85917,4.8604 -17.9365,9.0904 -17.94961,9.4 -0.0345,0.8344 27.06599,-0.6635 51.7228,-2.8587 62.43174,-5.5584 141.48773,-19.3795 212.9167,-37.2235 101.2651,-25.2976 156.0236,-54.185 164.4653,-86.7625 1.2878,-4.97028 1.297,-14.7456 0.019,-20.16881 -2.1918,-9.29804 -7.5561,-16.8783 -15.8432,-22.38754 -4.4025,-2.92679 -13.1333,-6.83716 -17.2112,-7.70857 l -2.0329,-0.43436 2.0314,-6.16735 c 2.031,-6.16579 2.0321,-6.16729 3.9891,-5.8497 3.1981,0.51899 11.9739,4.12479 16.4057,6.74073 5.7585,3.39907 12.6822,9.99224 16.2901,15.51223 7.6378,11.68561 11.0221,30.92405 7.7149,43.85545 -7.0625,27.61412 -48.0584,54.67982 -119.9854,79.21512 -76.329,26.0369 -187.85552,44.9503 -345.16395,58.5351 -10.53806,0.91 -21.14422,2.0142 -23.56923,2.4537 l -4.40913,0.7991 -3.0351,12.1272 c -2.1669,8.6576 -2.79973,12.1272 -2.2121,12.1272 0.45267,0 4.42012,-0.8498 8.81642,-1.8881 14.28367,-3.3739 20.23865,-4.1794 30.95588,-4.1871 8.96835,-0.01 10.94701,0.2069 18.75816,2.0234 14.14253,3.2887 18.26917,3.6326 33.86596,2.8221 24.39341,-1.2677 41.70197,-4.1439 58.74369,-9.7616 l 9.79797,-3.2299 1.02795,1.4161 c 0.96353,1.3275 2.11612,3.2931 4.03992,6.8891 1.04625,1.9558 1.35471,0.766 -16.70388,64.4543 -19.29464,68.0478 -22.95612,83.3004 -27.35584,113.9565 -3.16798,22.0734 -4.11067,35.1925 -4.10524,57.1308 0.005,18.5241 1.02156,61.1568 1.8764,78.6677 l 0.38272,7.8397 6.56975,2.0099 c 5.69459,1.7422 13.30071,3.7575 14.81688,3.9259 0.26684,0.029 0.48514,-0.2333 0.48514,-0.5842 z m 314.36082,-0.8869 c 0,-0.1278 -0.9851,-2.1216 -2.1892,-4.4316 -3.5282,-6.7689 -3.945,-10.9666 -3.0545,-30.7685 1.4523,-32.2987 8.4614,-101.1798 11.7019,-115.0011 4.0179,-17.1367 16.0777,-37.1785 37.7831,-62.7906 7.4867,-8.8343 67.6353,-69.2829 92.5639,-93.0256 17.5761,-16.74 30.8868,-28.9196 38.4865,-35.2161 9.8538,-8.1639 25.5869,-16.1988 47.5423,-24.2797 20.4932,-7.5428 26.916,-10.2302 38.81,-16.2391 29.6747,-14.9916 65.6796,-39.5783 97.069,-66.2857 14.1168,-12.0112 32.8514,-31.723 42.4071,-44.61918 2.7318,-3.68675 14.1198,-24.89021 18.1391,-33.77331 5.4993,-12.15401 10.6115,-25.3604 12.2219,-31.57323 1.7765,-6.85325 1.4549,-14.73138 -0.9837,-24.09421 -0.906,-3.47852 -1.6471,-6.58446 -1.6471,-6.90207 0,-0.3176 0.8908,-0.77321 1.9796,-1.01223 1.4015,-0.30776 2.2871,-1.07976 3.0328,-2.64355 1.2219,-2.5624 0.9506,-2.59193 9.5413,1.03865 17.8059,7.52516 31.9007,19.23639 42.8124,35.57218 9.9739,14.93196 16.1692,31.17556 21.193,55.56685 3.1019,15.06011 4.6131,19.2828 8.2868,23.1552 2.5253,2.6618 5.2663,3.3242 7.0671,1.7079 2.6176,-2.3494 7.0823,-8.67774 8.933,-12.66154 2.4986,-5.37873 3.2737,-10.65728 2.6054,-17.74394 -2.4475,-25.95179 -20.7169,-48.55362 -55.3218,-68.44088 -6.0479,-3.47569 -22.9579,-13.27385 -37.5777,-21.77372 l -26.5815,-15.45428 -20.1259,-16.73672 c -33.6273,-27.9646 -61.7207,-52.90075 -68.0664,-60.41671 -4.841,-5.73377 -7.7448,-11.2356 -8.1855,-15.50912 -0.2219,-2.15231 0.1675,-6.10237 1.0751,-10.90111 l 1.4233,-7.52571 6.9477,-3.29922 c 14.7088,-6.98459 29.266,-10.43342 44.0385,-10.43342 l 8.2788,0 3.068,-7.27687 c 3.9287,-9.31834 8.5193,-21.69483 8.8069,-23.74367 0.192,-1.36801 -0.642,-2.18807 -5.9781,-5.87997 -21.1628,-14.64185 -41.173,-25.06176 -55.8948,-29.10622 -7.3205,-2.01115 -19.7901,-2.45451 -26.6363,-0.94712 -19.7442,4.34745 -35.5358,20.82367 -41.7446,43.55429 -2.0381,7.46165 -2.0566,23.66522 -0.035,30.63507 4.5863,15.81153 15.4707,33.56085 33.5259,54.67122 3.8919,4.55049 16.9226,18.17038 28.957,30.26642 36.5413,36.72842 49.964,52.3099 53.2307,61.79134 1.5876,4.60835 -0.6292,13.81907 -4.0764,16.93636 -1.8913,1.71031 -5.7201,3.09713 -8.5507,3.09713 -1.5375,0 -7.984,-1.9172 -16.1015,-4.78864 -41.7424,-14.76561 -76.0143,-23.22658 -110.7427,-27.33981 -13.4383,-1.59167 -41.4516,-1.59685 -52.0701,-0.01 -10.5606,1.57854 -23.8951,4.53989 -34.5078,7.66348 -8.1067,2.38601 -28.5344,9.63833 -30.2638,10.74433 -0.5233,0.3347 -0.2079,2.05367 1.0955,5.96821 6.7095,20.153 -5.2901,52.55863 -31.3881,84.76468 -23.5351,29.04344 -64.7217,65.28794 -102.5432,90.23894 -15.9391,10.5151 -27.3029,17.099 -43.6612,25.2965 -7.471,3.7437 -13.6916,7.1039 -13.8236,7.467 -0.1572,0.4323 1.2944,0.523 4.2044,0.2629 2.4445,-0.2185 11.2848,-0.9895 19.6451,-1.7131 100.5882,-8.7078 215.8918,-30.5589 288.1641,-54.6098 32.8267,-10.9242 53.905,-20.4948 73.0921,-33.1876 14.3303,-9.48 27.657,-24.1701 34.7563,-38.31224 2.5977,-5.17473 2.753,-5.79183 2.6405,-10.49238 -0.4143,-17.31297 -10.1796,-29.99798 -28.6083,-37.16203 -3.4106,-1.32587 -6.2598,-2.43528 -6.3314,-2.46535 -0.1036,-0.0432 2.1989,-8.08514 3.3674,-11.76359 0.6199,-1.95086 17.9135,5.20062 25.1274,10.39097 12.7071,9.1425 19.3483,22.13478 20.7502,40.59365 0.3569,4.69761 0.2114,6.22967 -0.9063,9.54756 -3.0877,9.16561 -12.5474,21.73871 -27.7919,36.93891 -11.4153,11.382 -14.7699,13.648 -35.969,24.2964 -71.1361,35.7317 -181.1765,62.0397 -326.9457,78.1648 -14.582,1.613 -37.87,3.007 -71.1516,4.259 -9.7833,0.3681 -19.0641,0.9682 -20.6239,1.3337 -8.8489,2.0735 -13.9453,8.3501 -14.7703,18.1906 l -0.3866,4.6108 7.1202,-0.4325 c 3.9161,-0.2378 10.7297,-0.9069 15.1414,-1.487 4.4116,-0.58 12.3873,-1.0855 17.7237,-1.1233 9.1132,-0.064 10.2917,0.076 19.405,2.3118 12.6834,3.1119 15.6157,3.3455 31.294,2.493 22.7766,-1.2385 40.0666,-4.1535 56.2265,-9.4795 4.8716,-1.6057 9.2074,-3.0664 9.6349,-3.2461 0.8051,-0.3385 4.7207,6.6732 4.7207,8.4535 0,0.5324 -7.003,26.0825 -15.5622,56.778 -16.0572,57.5851 -17.6632,63.7198 -21.5537,82.3301 -3.0835,14.75 -4.5647,23.0569 -6.5166,36.5461 -4.7224,32.6343 -5.0676,46.8854 -2.3741,98.0069 2.0621,39.1394 2.0611,39.319 -0.266,46.9235 -0.6019,1.9666 8.0812,5.5778 13.7694,5.7267 1.1562,0.031 2.1022,-0.048 2.1022,-0.1765 z m -351.84019,-8.7567 2.27219,-1.8729 -0.46382,-6.3742 c -0.90204,-12.3972 -1.84369,-37.5724 -1.83518,-49.0652 0.0363,-49.0849 9.44473,-110.1828 29.13419,-189.1986 4.5359,-18.203 15.43016,-58.8624 16.56153,-61.8107 0.50396,-1.3133 0.63608,-1.3416 -7.22841,1.5492 -11.87856,4.3661 -29.39812,6.6545 -52.06095,6.8001 l -15.20057,0.099 -12.93666,-2.5572 c -19.82763,-3.9193 -27.92963,-3.5293 -54.65739,2.631 -5.51424,1.2709 -10.25725,2.5295 -10.53999,2.7969 -0.49429,0.4673 -17.92067,106.8852 -17.92067,109.4364 0,1.1455 75.59313,139.3465 81.61992,149.2191 8.54269,13.9942 17.65579,25.4655 25.39251,31.9633 4.38259,3.6809 12.43715,8.2581 14.53171,8.2581 0.58272,0 2.08188,-0.8429 3.33159,-1.873 z m 322.56319,-0.5527 c 0.9148,-2.0971 1.1219,-7.1126 1.5296,-37.0311 0.7123,-52.2613 2.5979,-83.9776 6.4072,-107.768 0.6898,-4.3078 9.2701,-42.2651 19.0673,-84.3497 9.7973,-42.0845 17.7368,-76.5771 17.6434,-76.65 -0.093,-0.073 -14.287,1.2923 -31.5413,3.0338 -40.423,4.0801 -43.2897,4.1328 -55.951,1.0286 -5.3364,-1.3082 -11.1579,-2.5477 -12.9367,-2.7543 -2.2685,-0.2636 -10.0531,0.6723 -26.0718,3.134 -12.5607,1.9304 -22.9179,3.6145 -23.016,3.7425 -0.3202,0.4179 -11.3492,61.8901 -14.258,79.4698 -3.729,22.5363 -3.9527,24.8595 -2.7757,28.8213 4.8379,16.2847 31.3176,65.6774 78.6968,146.7939 10.5968,18.1424 12.467,21.0987 17.1872,27.1669 6.4453,8.2863 12.9846,13.8033 19.4899,16.4429 4.5365,1.8408 5.3106,1.7127 6.5291,-1.0807 z m 166.6859,-699.35599 c -0.4548,-0.44679 -64.1797,-31.72697 -64.6351,-31.72697 -0.3155,0 -3.7399,7.797 -3.5163,8.00642 0.5808,0.54403 68.2084,24.80641 68.4748,24.56632 0.1537,-0.13817 0.01,-0.51951 -0.3235,-0.84575 z m -325.74512,-0.67545 c -0.18963,-0.56579 -60.50922,-30.25547 -62.15962,-30.59535 -0.68599,-0.14162 -3.45027,5.84013 -2.9365,6.35394 0.36666,0.36666 64.00517,24.76844 64.77269,24.83673 0.29654,0.0259 0.44213,-0.24162 0.32348,-0.59532 z m 648.11582,-0.31847 c -0.4558,-0.4126 -63.5374,-30.68228 -63.6683,-30.55123 -0.078,0.0777 -0.7246,1.62189 -1.4377,3.43134 l -1.2966,3.28984 32.7692,12.33802 c 18.0231,6.78593 33.0097,12.18937 33.3037,12.00768 0.294,-0.18169 0.4423,-0.41381 0.3297,-0.5157 z M 944.76865,675.17104 c -0.0142,-0.26683 -11.5825,-7.98341 -25.70759,-17.14801 l -25.68187,-16.66289 -1.08598,3.07939 c -2.05958,5.84056 -3.94343,4.44193 24.84887,18.44882 14.31927,6.96604 26.39887,12.68855 26.84356,12.71669 0.44472,0.0276 0.79704,-0.16753 0.78288,-0.43401 z m 321.50165,-2.05534 c 0,-0.59498 -45.4206,-29.71999 -46.7633,-29.98603 -0.8826,-0.17478 -3.5089,6.80888 -2.682,7.13159 0.335,0.13126 11.3791,5.43103 24.5422,11.77824 13.1631,6.34721 24.1511,11.57095 24.418,11.60829 0.2668,0.038 0.4851,-0.20207 0.4851,-0.53211 z m 320.5452,-1.92337 c -0.4704,-0.76129 -44.48,-29.52887 -44.9532,-29.38449 -0.7615,0.23229 -2.9332,8.1977 -2.3027,8.4455 0.3544,0.13989 10.8321,5.01766 23.2836,10.84081 21.5164,10.06255 24.807,11.44866 23.9723,10.09818 z"
     id="path4138"
     inkscape:connector-curvature="0" />
  <path
     style="fill:none;fill-opacity:1;stroke:#000000;stroke-width:5.18120098;stroke-miterlimit:4;stroke-dasharray:none;stroke-opacity:1"
     d="m 827.77704,638.7181 -8.18477,-5.8059 3.90337,-7.29247 c 5.07083,-9.47356 4.89807,-9.28018 6.74265,-7.54728 1.65643,1.55609 1.72413,1.53156 6.49992,-2.36062 l 2.0451,-1.66679 6.52543,8.09232 c 3.58898,4.45079 6.52543,8.38357 6.52543,8.7395 0,0.81206 -14.30226,13.64705 -15.20719,13.64705 -0.36579,0 -4.34832,-2.61265 -8.84994,-5.80589 z"
     id="path4140"
     inkscape:connector-curvature="0" />
  <path
     style="fill:none;fill-opacity:1;stroke:#000000;stroke-width:5.18120098;stroke-miterlimit:4;stroke-dasharray:none;stroke-opacity:1"
     d="m 1151.3178,638.67562 -6.1449,-5.78618 4.2044,-8.08271 c 2.3125,-4.44548 4.3835,-8.08583 4.6023,-8.08963 0.2189,-0.004 1.138,0.57529 2.0426,1.28684 0.9044,0.71155 1.8643,1.29357 2.1328,1.29357 0.2685,0 1.9158,-0.91603 3.6606,-2.03574 2.7004,-1.73287 3.3006,-1.9013 4.0336,-1.13192 1.9098,2.0045 10.0483,14.18067 10.0483,15.03358 0,2.63645 -14.2762,13.45224 -17.5941,13.3295 -0.4623,-0.0171 -3.6058,-2.63488 -6.9856,-5.81728 z"
     id="path4142"
     inkscape:connector-curvature="0" />
  <path
     style="fill:none;fill-opacity:1;stroke:#000000;stroke-width:0.19404995;stroke-miterlimit:4;stroke-dasharray:none;stroke-opacity:1"
     d="m 1474.6377,638.92889 c -4.0381,-3.0773 -7.4464,-5.68015 -7.5741,-5.7841 -0.2024,-0.16407 7.444,-15.65735 8.0888,-16.38866 0.1348,-0.15198 1.1672,0.40448 2.2946,1.23814 2.2585,1.66973 1.6704,1.80551 7.7785,-1.79605 0.9673,-0.57045 1.8638,-0.90688 1.992,-0.74765 1.5754,1.95567 10.156,14.8715 10.156,15.28707 0,1.11344 -13.6365,13.78641 -14.8346,13.78641 -0.3076,0 -3.8632,-2.5178 -7.9012,-5.59511 z"
     id="path4144"
     inkscape:connector-curvature="0" />
  <path
     style="fill:none;fill-opacity:1;stroke:#000000;stroke-width:5.18120098;stroke-miterlimit:4;stroke-dasharray:none;stroke-opacity:1"
     d="m 1474.9962,638.60263 c -3.8795,-2.90099 -7.1607,-5.36088 -7.2915,-5.46642 -0.2775,-0.22401 5.3671,-12.15942 6.7955,-14.36903 0.9138,-1.41343 1.0601,-1.44158 2.5198,-0.48513 2.1384,1.40117 3.1869,1.28615 6.8007,-0.74506 1.7225,-0.96836 3.2514,-1.62327 3.3972,-1.4554 1.0561,1.21551 9.5088,14.27787 9.5088,14.69441 0,1.00049 -13.0528,13.10123 -14.1321,13.10123 -0.2997,0 -3.719,-2.37352 -7.5984,-5.27453 z"
     id="path4146"
     inkscape:connector-curvature="0" />
</svg>
