<?xml version="1.0" encoding="UTF-8" standalone="no"?>
<svg
   xmlns:dc="http://purl.org/dc/elements/1.1/"
   xmlns:cc="http://creativecommons.org/ns#"
   xmlns:rdf="http://www.w3.org/1999/02/22-rdf-syntax-ns#"
   xmlns:svg="http://www.w3.org/2000/svg"
   xmlns="http://www.w3.org/2000/svg"
   xmlns:sodipodi="http://sodipodi.sourceforge.net/DTD/sodipodi-0.dtd"
   xmlns:inkscape="http://www.inkscape.org/namespaces/inkscape"
   width="200"
   height="200"
   viewBox="0 0 2000 2000"
   id="svg2"
   version="1.1"
   inkscape:version="0.91 r13725"
   sodipodi:docname="two.svg">
  <metadata
     id="metadata14">
    <rdf:RDF>
      <cc:Work
         rdf:about="">
        <dc:format>image/svg+xml</dc:format>
        <dc:type
           rdf:resource="http://purl.org/dc/dcmitype/StillImage" />
      </cc:Work>
    </rdf:RDF>
  </metadata>
  <defs
     id="defs12" />
  <sodipodi:namedview
     pagecolor="#ffffff"
     bordercolor="#666666"
     borderopacity="1"
     objecttolerance="10"
     gridtolerance="10"
     guidetolerance="10"
     inkscape:pageopacity="0"
     inkscape:pageshadow="2"
     inkscape:window-width="1920"
     inkscape:window-height="1005"
     id="namedview10"
     showgrid="false"
     inkscape:zoom="2"
     inkscape:cx="173.39528"
     inkscape:cy="90.674723"
     inkscape:window-x="-9"
     inkscape:window-y="351"
     inkscape:window-maximized="1"
     inkscape:current-layer="svg2" />
  <!-- Just for the outline -->
  <!-- <rect -->
  <!--     fill   = "none" -->
  <!--     stroke = "black" -->
  <!--     x      = "0" -->
  <!--     y      = "0" -->
  <!--     width  = "100" -->
  <!--     height = "100"/> -->
  <!-- <!-\- one person -\-> -->
  <!-- <path -->
  <!--     fill   = "none" -->
  <!--     stroke = "black" -->
  <!--     d      = -->
  <!--     "M  55  75 -->
  <!--      l  30   0 -->
  <!--      m -10   0 -->
  <!--      c  10 -25 -->
  <!--        -10 -20 -->
  <!--        -15  -1 -->
  <!--      l   0 -35 -->
  <!--      c  -8  -3 -->
  <!--         -8 -14 -->
  <!--          0 -15 -->
  <!--      c   8   2 -->
  <!--          8  14 -->
  <!--          0  15 -->
  <!--      l  -5  15 -->
  <!--      l  15  -4 -->
  <!--      m -10  -9 -->
  <!--      l   3  12 -->
  <!--      l  15 -10 -->
  <!--     " -->
  <!-- /> -->
  <path
     d="m 1034.6538,1007.7865 q 0,7.76 10.3467,18.8827 10.3466,11.1226 18.624,11.1226 54.3199,0 152.6133,-50.6986 9.312,59.4933 16.0373,175.376 1.0347,19.6586 0,27.4186 l -2.0693,14.4854 q -9.312,65.184 -9.312,75.0133 0,52.768 20.6933,80.704 l -4.1387,0 q -11.8986,24.832 -54.8373,43.456 -38.2827,17.072 -69.84,17.072 -6.7253,13.4507 -6.7253,24.3147 19.6586,3.104 40.352,3.104 28.4533,0 90.5333,-16.5547 62.08,-16.5547 92.0853,-16.5547 l 6.208,0 175.8934,13.968 q 78.1173,6.208 88.9813,6.208 34.144,0 44.4907,-13.4506 68.288,27.4187 100.3627,27.4187 18.1066,0 18.1066,-13.9681 0,-4.1386 -2.0693,-14.4853 -30.0053,-8.7947 -91.0507,-35.1787 2.0694,-8.2773 2.0694,-12.416 0,-38.2826 -62.5974,-66.736 18.624,-86.3946 44.4907,-220.384 0,-1.0346 0.5173,-3.6213 0,-9.8293 -8.7946,-26.1253 -8.7947,-16.296 -17.072,-21.4694 -1.0347,-1.0346 -24.3147,-5.1733 -62.08,21.2107 -102.432,62.5973 -37.248,38.2827 -95.7067,111.2267 -23.28,-97.2587 -23.28,-150.544 0,-6.208 12.9333,-73.9787 12.9334,-67.77064 29.488,-150.54397 13.968,20.176 88.9814,107.088 24.3146,28.45337 41.3866,28.45337 31.5574,0 83.8081,-61.04537 13.968,-16.03733 67.2533,-89.49867 8.2773,-11.38133 10.864,-13.45066 l 51.7333,-42.42134 -2.0693,-3.104 2.0693,-2.58666 q -8.7946,-8.79467 -19.1413,-14.48534 -6.208,6.208 -18.624,14.48534 l -1.0347,-2.06934 10.3467,-25.34933 44.4907,-28.45334 q -2.5867,-9.312 -10.3467,-23.28 -33.6267,10.864 -49.664,26.384 -16.0373,15.52001 -28.9707,49.14667 -11.3813,29.488 -23.28,40.86934 l -108.1227,105.01866 q -56.9066,-71.392 -57.9413,-72.944 -35.1787,-41.904 -65.184,-65.70133 -19.1413,-15.00267 -84.3253,-39.31733 l 4.1386,-21.21067 41.3867,11.38133 16.5547,-50.69867 q 23.7973,0 26.9013,-10.34666 -28.9707,-37.248 -37.248,-79.66934 -16.5547,-85.87733 -91.0507,-85.87733 -45.008,0 -76.5653,24.31467 -34.6613,26.384 -34.6613,69.84 0,55.35466 41.3866,116.91733 l -2.0693,29.488 -3.6213,-1.03466 -2.0694,0 q -91.0506,0 -139.68,112.26133 -38.2826,88.464 -65.7013,173.82397 -0.5173,1.0347 -0.5173,2.5867 z m 185.7226,-438.18134 q 0,-34.144 32.592,-56.90667 29.488,-20.176 65.184,-20.176 23.7974,0 45.5254,17.072 21.728,17.072 28.4533,39.83467 l -77.0827,32.07467 q -8.7946,-8.79467 -23.28,-8.79467 -23.28,0 -23.28,28.97067 0,11.89866 11.3814,20.176 l 5.1733,37.76533 -28.4533,19.14133 q -36.2134,-51.216 -36.2134,-109.15733 z m -104.5013,390.06934 57.9413,-118.98667 q 12.416,1.03467 24.3147,39.83467 9.8293,31.55733 10.864,51.73333 z m -68.288,47.5947 q 0,-0.5174 25.8667,-73.9787 35.696,-100.88 60.528,-136.576 47.5946,-68.80534 124.6773,-63.632 l 2.0693,-41.38667 38.2827,-25.34934 -6.208,-51.216 q -8.7947,-7.76 -11.8987,-15.52 0.5174,-5.69066 11.8987,-13.968 9.8293,0 20.176,10.34667 l 82.256,-33.62667 q 2.0693,37.248 33.1093,79.152 l -18.1066,3.62134 -16.0374,46.56 -43.456,-13.968 -8.2773,46.56 q 30.0053,10.34667 84.8427,37.248 20.6933,13.45067 66.736,66.736 38.2826,44.49067 75.0133,82.77333 13.968,-21.21066 68.8054,-71.392 53.2853,-47.59466 58.4586,-57.94133 2.0694,-25.34933 25.3494,-56.90667 24.832,-34.144 48.6293,-35.17867 l -39.8347,26.38401 -15.0026,33.62666 q 4.1386,6.208 13.4506,18.10667 4.656,-2.58667 24.832,-15.00267 -41.904,35.17867 -66.736,68.288 -32.592,42.93867 -52.768,67.25334 -42.4213,50.69867 -58.976,58.4587 -8.7947,4.1386 -20.6933,4.1386 -12.416,0 -70.616,-70.87464 -58.2,-70.87466 -68.5467,-70.87466 -15.52,68.288 -43.456,229.696 -2.0693,11.8987 -2.0693,20.176 0,27.936 24.3146,149.5093 -26.384,-9.312 -147.9573,-32.592 -1.0347,-72.4266 -13.968,-166.5813 -3.104,-23.28 -3.104,-27.4187 l 1.0347,-3.104 q 68.8053,-32.592 71.392,-33.6266 44.4906,-23.79737 61.0453,-47.07737 -7.2427,-15.00267 -15.0027,-15.00267 -13.968,13.968 -22.2453,13.968 -3.104,0 -4.1387,-3.104 2.5867,-10.864 33.6267,-20.176 28.9707,-8.27733 28.9707,-22.24533 l 0,-4.13867 -37.248,-3.104 q -28.4534,0 -48.6294,22.76267 -16.5546,22.76267 -33.1093,45.008 -4.656,5.69067 -43.456,15.52 -1.0347,-28.45333 -12.416,-60.01067 -15.0027,-40.352 -36.2133,-40.352 l -5.1734,0 q -1.552,0.51734 -4.1386,1.03467 l -64.6667,142.78397 4.1387,6.7254 150.544,-45.52537 q 11.8986,-3.62133 40.352,-41.38667 25.8666,-34.144 53.8026,-34.144 7.2427,0 10.864,1.03467 -28.4533,9.312 -33.6266,11.89867 -17.5894,9.82933 -17.5894,28.45333 0,5.17333 1.0347,7.24267 9.312,4.656 17.072,4.656 8.2773,0 16.0373,-5.69067 -27.4186,31.55734 -128.2986,65.70137 l 1.0346,3.104 q -21.2106,12.9333 -72.4266,31.5573 -54.32,19.6587 -73.4613,19.6587 -5.1734,0 -12.9334,-5.9494 -7.76,-5.9493 -7.76,-11.1226 z m 365.7547,207.4506 q 61.5626,-77.6 71.392,-88.464 46.56,-50.6986 88.464,-69.3226 l 21.2106,44.4906 q -34.6613,54.8374 -34.6613,124.16 0,2.0694 3.104,54.8374 -27.936,-13.4507 -149.5093,-65.7014 z m -178.9974,58.976 q 0,-7.76 11.8987,-82.256 23.28,0 101.3973,18.1067 62.08,14.4853 138.6454,49.664 20.176,8.7947 132.4373,65.7013 l -41.904,51.216 q -67.7707,-28.9706 -157.2693,-28.9706 -21.728,0 -64.1494,13.4506 -42.4213,13.4507 -63.632,13.4507 -42.9386,0 -54.32,-71.9093 -3.104,-19.6587 -3.104,-28.4534 z m -114.3306,158.304 8.2773,1.0347 q 22.2453,0 64.6667,-20.6933 45.008,-21.2107 52.2506,-39.3174 l 6.208,0 q 3.104,0 17.5894,6.7254 14.4853,6.7253 22.7626,6.7253 21.728,0 63.8907,-13.192 42.1627,-13.192 63.8907,-13.192 87.9466,0 161.408,30.5227 l 48.6293,-58.976 q 29.488,15.52 29.488,39.8346 0,21.728 -20.176,37.248 -18.1066,13.968 -40.8693,13.968 -45.5254,0 -136.3174,-10.088 -90.792,-10.088 -136.3173,-10.088 -30.5227,0 -89.4987,16.296 -58.976,16.296 -89.4986,16.296 -18.1067,0 -26.384,-3.104 z m 452.1493,-210.5546 q 0,-59.4934 37.248,-120.0214 l -25.3493,-50.6986 q 16.5546,-8.2774 22.2453,-8.2774 13.4507,0 23.5387,13.968 10.088,13.968 10.088,27.936 0,4.656 -9.8293,60.528 -15.0027,84.8427 -33.6267,153.648 -6.7254,-3.6213 -19.6587,-11.3813 -4.656,-31.5573 -4.656,-65.7013 z m 82.7734,190.3786 9.8293,-14.4853 q 42.9387,21.2107 85.36,31.5573 l 0,6.208 q -4.1387,1.0347 -11.3813,1.0347 -39.3174,0 -83.808,-24.3147 z M 1350.7444,602.71449 q 6.7254,2.06934 4.656,7.24267 25.8667,0 42.9387,-18.10667 l -4.1387,-6.208 0,-2.06933 q -9.312,-3.104 -13.4506,-3.104 -19.6587,0 -30.0054,22.24533 z"
     id="path8"
     inkscape:connector-curvature="0"
     style="fill:none;stroke:#000000;stroke-width:0.51733333" />
  <path
     style="fill:#000000;fill-opacity:0.92038215;stroke:none;stroke-width:0.026;stroke-miterlimit:4;stroke-dasharray:none;stroke-opacity:1"
     d="m 1243.8187,1123.7505 c -0.041,-0.4335 -0.1112,-1.3735 -0.1531,-2.0894 -0.1552,-2.6625 -0.9136,-13.1157 -1.3122,-18.0847 -2.2468,-28.0082 -5.3113,-56.1579 -9.65,-88.6426 -2.5979,-19.4509 -3.4725,-26.83 -3.8243,-32.2649 -0.047,-0.6928 0.036,-1.08 0.5152,-2.4635 l 0.5685,-1.6415 11.0975,-5.2516 c 33.1338,-15.6797 56.6072,-26.733 59.1717,-27.8633 1.4493,-0.6387 4.6054,-2.3498 9.9912,-5.4169 23.7224,-13.50897 40.9581,-27.19415 50.8711,-40.39188 l 1.1626,-1.54774 -0.6412,-1.27957 c -0.827,-1.65028 -2.1104,-3.88201 -2.9814,-5.18424 -3.231,-4.83092 -6.2708,-7.38051 -9.5701,-8.02658 l -1.1895,-0.23296 -2.0986,1.99443 c -7.3687,7.00296 -13.4094,10.90673 -18.2961,11.82381 -1.5686,0.29442 -3.1405,0.21475 -4.1104,-0.20822 -1.1797,-0.51449 -2.3555,-2.04 -2.3635,-3.06652 -0,-0.48785 0.5789,-1.95635 1.19,-2.99903 1.9259,-3.28607 6.391,-6.77778 12.6446,-9.88815 5.2082,-2.59046 11.3644,-4.91351 20.0028,-7.54811 7.3049,-2.22792 10.7521,-3.52547 14.9336,-5.62112 4.2997,-2.15492 6.9382,-3.98801 9.3919,-6.52513 2.392,-2.47335 3.7382,-5.00402 4.2348,-7.96125 l 0.086,-0.51376 -33.9999,0 -34,0 -0.8399,0.50305 c -2.9056,1.74026 -7.1299,4.87839 -9.8118,7.28892 -3.902,3.50726 -6.0752,5.88895 -8.8349,9.68256 -6.6467,9.13701 -20.1532,27.51453 -26.3766,35.88914 -4.9114,6.60906 -4.8579,6.54247 -5.843,7.27881 -3.3531,2.50652 -10.2173,5.27429 -21.8332,8.80356 -6.3,1.91416 -20.5948,5.77176 -20.7633,5.60322 -0.041,-0.0409 -0.1335,-1.20695 -0.2064,-2.59115 -0.7764,-14.82644 -3.5502,-29.96414 -8.4195,-45.94754 -2.7441,-9.00749 -5.6759,-16.78773 -8.9703,-23.80473 l -1.2704,-2.70586 -7.3922,0 c -4.0657,0 -7.3716,0.046 -7.3465,0.10274 0.026,0.0565 0.7656,1.55158 1.6456,3.32238 3.4416,6.92597 6.3738,14.75263 9.9574,26.5791 5.8675,19.36348 9.1228,34.83188 10.0184,47.60532 0.074,1.05267 0.089,1.95474 0.036,2.00462 -0.055,0.0497 -4.1999,1.29569 -9.2109,2.76849 -15.5823,4.57986 -80.8034,23.78399 -82.7326,24.36039 -1.007,0.3008 -1.8584,0.5195 -1.8919,0.486 -0.047,-0.048 49.2151,-101.36366 51.5557,-106.03025 l 0.6012,-1.1988 -7.4339,2.8e-4 -7.4339,2.9e-4 -26.5024,58.53538 c -14.5763,32.1945 -26.6192,58.7828 -26.7619,59.0853 l -0.2597,0.55 1.9418,3.1492 c 1.0681,1.732 1.9555,3.1632 1.9721,3.1802 0.015,0.015 10.5075,-3.1372 23.313,-7.0095 12.8056,-3.8723 40.2373,-12.1677 60.9594,-18.4343 20.7221,-6.2666 44.2117,-13.36828 52.1991,-15.78155 7.9875,-2.41326 14.9705,-4.5937 15.5179,-4.84542 6.4664,-2.97355 16.3903,-12.6941 29.0175,-28.42298 3.209,-3.99726 4.3303,-5.43252 7.8672,-10.06975 6.309,-8.27202 9.6591,-12.13442 15.1514,-17.46823 11.1366,-10.81542 22.6118,-16.91029 34.9948,-18.58694 2.3051,-0.31211 9.4048,-0.35427 11.9879,-0.0711 2.5217,0.27636 5.4245,0.90001 5.1884,1.11465 -0.066,0.0596 -3.695,1.29539 -8.0655,2.74622 -12.6456,4.19786 -20.4551,6.95843 -24.4021,8.62589 -2.82,1.19137 -6.4934,3.61995 -9.3698,6.19464 -4.5002,4.02822 -7.5873,9.19516 -8.9495,14.97881 -0.6277,2.6651 -0.8246,4.52722 -0.8258,7.80932 -10e-4,3.11698 0.1392,4.54738 0.5978,6.09675 l 0.2638,0.89054 1.6141,0.74033 c 6.2534,2.86822 12.4756,4.20699 17.3012,3.72252 1.8774,-0.18846 4.2604,-0.7015 5.8805,-1.26598 1.7489,-0.60932 4.5271,-2.01025 6.3571,-3.2056 1.4786,-0.9658 1.6386,-1.039 1.8369,-0.84066 0.1982,0.19834 0.133,0.3104 -0.748,1.28685 -1.5537,1.7217 -5.5659,5.59363 -7.6407,7.37359 -12.1287,10.40492 -30.0174,20.97747 -53.8031,31.7985 -17.1173,7.7873 -38.4576,16.1168 -61.7612,24.1065 -2.1476,0.7362 -3.9267,1.3556 -3.9537,1.3764 -0.026,0.021 0.1738,0.7034 0.4464,1.5171 l 0.4956,1.4795 -0.2891,0.2181 c -0.5819,0.4389 -6.44,3.712 -9.3886,5.2456 -11.1072,5.7773 -27.7076,12.97 -46.4281,20.1167 -42.6703,16.2898 -73.3058,25.2266 -88.5056,25.8187 -2.5761,0.1003 -3.6353,-0.031 -5.6619,-0.7101 -4.1396,-1.3841 -10.2281,-5.5658 -13.6217,-9.3557 -1.9889,-2.2211 -3.0959,-4.3645 -3.332,-6.4511 -0.1081,-0.956 -0.3471,-0.1826 3.3719,-10.9035 4.4807,-12.9161 20.3734,-58.17883 24.1595,-68.80698 8.1384,-22.84577 16.4407,-44.57856 23.8809,-62.5129 1.7099,-4.12186 5.3392,-12.67483 5.4798,-12.9142 0.036,-0.0573 -2.6929,-0.0881 -6.0591,-0.0685 l -6.1203,0.0357 -2.051,4.93221 c -20.4798,49.24946 -36.7693,93.16207 -53.3639,143.85587 l -1.6145,4.9322 0.021,1.3701 c 0.061,4.3024 2.5791,9.4404 7.5554,15.4132 5.7394,6.8886 11.7369,11.6547 16.7115,13.2803 2.1149,0.6911 2.679,0.7403 7.4901,0.6527 22.5459,-0.4102 52.0354,-7.7579 86.5924,-21.5757 17.6271,-7.0482 37.1472,-15.9754 57.0379,-26.0853 3.2642,-1.6591 5.9728,-2.9786 6.0193,-2.9321 0.2359,0.2359 2.5535,16.6858 3.9391,27.9602 2.9307,23.8452 5.6816,52.9053 8.216,86.7931 0.6291,8.4114 1.5793,21.986 1.5793,22.5608 l 0,0.4563 6.8638,0 6.8637,0 -0.077,-0.7878 z"
     id="path4164"
     inkscape:connector-curvature="0" />
  <path
     style="fill:#000000;fill-opacity:0.92038215;stroke:none;stroke-width:0.026;stroke-miterlimit:4;stroke-dasharray:none;stroke-opacity:1"
     d="m 1751.6258,1447.861 c 9.0862,-1.8995 12.1245,-8.2687 9.9195,-20.7942 l -1.0056,-5.7125 -13.9503,-4.8144 c -17.8588,-6.1631 -32.3263,-11.7746 -56.9641,-22.0946 l -19.763,-8.278 0.2664,-2.2698 c 0.1465,-1.2483 0.315,-6.6292 0.3744,-11.9575 0.099,-8.845 -0.069,-10.1111 -1.9291,-14.5539 -7.5932,-18.1378 -23.6583,-32.6592 -51.6138,-46.6542 -4.3654,-2.1854 -7.9371,-4.346 -7.9371,-4.8013 0,-0.4553 2.9505,-14.8238 6.5567,-31.9297 7.714,-36.5913 24.1409,-118.2155 32.5839,-161.907 l 5.9572,-30.8275 -1.2845,-5.7736 c -1.5783,-7.0941 -9.642,-23.4624 -15.1563,-30.7654 -6.5541,-8.6801 -8.2697,-9.6662 -21.4519,-12.3302 l -11.4368,-2.3112 -6.9906,2.441 c -26.0116,9.0829 -55.2521,25.426 -76.4926,42.7532 -20.5691,16.7796 -55.0713,54.9728 -103.2867,114.3361 -6.3184,7.7793 -11.7415,14.1442 -12.0514,14.1442 -0.3099,0 -0.9432,-1.831 -1.4072,-4.0689 -0.464,-2.2379 -2.2314,-10.1721 -3.9275,-17.6317 -5.9828,-26.3122 -11.5501,-56.3024 -14.3873,-77.5021 -3.2942,-24.6145 -4.7245,-47.8147 -3.5059,-56.8658 1.9056,-14.1532 16.5054,-91.2282 35.309,-186.40275 6.32,-31.98887 6.8817,-34.29217 8.013,-32.85654 0.669,0.84913 4.4101,5.69214 8.3135,10.76226 17.4833,22.70934 81.6586,97.98492 91.793,107.67013 7.5929,7.2564 11.9515,10.3948 19.0489,13.7161 13.5395,6.3358 30.7593,0.437 54.3866,-18.6306 12.5854,-10.1567 31.7134,-30.04717 46.3508,-48.19852 5.8141,-7.20989 31.6059,-41.62279 44.4359,-59.2891 5.2627,-7.24645 12.9838,-17.7575 17.158,-23.35789 l 7.5895,-10.18252 25.3707,-20.81832 c 13.9539,-11.45007 25.9125,-21.23302 26.5748,-21.73989 1.0172,-0.77857 1.0468,-1.17884 0.1908,-2.57955 -0.827,-1.35315 -0.8298,-1.87903 -0.015,-2.86041 0.8511,-1.02551 0.4299,-1.71717 -2.8619,-4.70034 -2.1228,-1.92384 -6.1071,-5.00674 -8.8538,-6.85088 l -4.9941,-3.35298 -3.1437,2.65243 c -1.729,1.45884 -5.8489,4.6234 -9.1554,7.03237 -5.7106,4.16053 -8.3261,4.9366 -8.3261,2.47057 0,-0.56171 2.3542,-6.73749 5.2314,-13.72395 l 5.2314,-12.70266 21.7006,-13.87835 c 20.4766,-13.09559 21.6943,-14.00424 21.5894,-16.11038 -0.1376,-2.76126 -8.3891,-20.11411 -9.5646,-20.11411 -1.5573,0 -15.786,5.56742 -23.0021,9.00029 -9.0109,4.2867 -20.217,11.76489 -25.407,16.95488 -10.9262,10.9262 -18.4714,23.62055 -28.3188,47.64457 -2.9587,7.21826 -6.8249,16.01903 -8.5915,19.55728 -7.5635,15.14898 -7.4857,15.06445 -67.3102,73.14354 -30.7018,29.8061 -56.153,54.19291 -56.5582,54.19291 -0.4053,0 -13.3313,-15.86855 -28.7244,-35.26345 -32.813,-41.34334 -34.7922,-43.73423 -49.8844,-60.26229 -18.2021,-19.93386 -38.5248,-38.65004 -50.8996,-46.87596 -11.065,-7.35531 -39.4192,-20.3884 -67.2316,-30.90327 -7.912,-2.99121 -11.0431,-4.52914 -11.0441,-5.42454 -8e-4,-0.68734 0.8705,-5.53074 1.9361,-10.76312 1.0657,-5.23238 1.9376,-9.63983 1.9376,-9.79435 0,-0.73093 3.5394,0.10109 21.7694,5.11755 10.7901,2.96916 19.6875,5.32329 19.772,5.23139 0.084,-0.0919 3.7939,-11.32717 8.2431,-24.96729 l 8.0894,-24.8002 8.0703,-1.00168 c 4.9922,-0.61963 9.5972,-1.7005 12.0735,-2.83386 4.3396,-1.98611 7.2261,-5.34326 6.0188,-6.99999 -7.6417,-10.48579 -16.39,-24.79905 -21.2988,-34.84731 -7.1764,-14.69006 -11.1949,-26.38117 -15.0391,-43.75387 -6.7959,-30.71159 -15.2083,-48.48058 -29.7715,-62.88403 -17.6164,-17.42312 -40.8535,-24.73688 -71.2604,-22.42888 -31.1329,2.36312 -55.7769,12.99505 -75.3646,32.51395 -11.7535,11.71221 -17.8824,22.37716 -22.2474,38.71226 -1.7957,6.7204 -1.9864,8.84456 -2.0222,22.53278 -0.047,17.13772 1.4715,28.08134 6.1384,44.30226 5.4203,18.83956 16.2346,42.34666 28.3065,61.52999 l 6.3139,10.03339 -0.9422,15.11291 c -0.5182,8.3121 -1.0154,15.19413 -1.1048,15.29341 -0.09,0.0993 -1.2003,-0.11712 -2.4687,-0.48086 -3.3655,-0.96523 -21.149,0.31412 -30.2566,2.17665 -16.4666,3.3675 -33.229,10.70846 -47.5492,20.82374 -4.0495,2.86041 -11.9213,9.73462 -17.4928,15.27602 -15.7124,15.62753 -27.5717,32.51956 -39.4482,56.18902 -4.887,9.73961 -16.686,36.28347 -16.686,37.53796 0,0.24092 2.5284,0.43213 5.6188,0.42483 l 5.6189,-0.0134 1.8614,-4.44315 c 1.0237,-2.44369 5.2906,-11.4183 9.482,-19.94353 12.9673,-26.37507 22.7478,-40.50853 39.7145,-57.39016 19.7045,-19.60559 39.0858,-30.32626 64.9078,-35.90335 9.0591,-1.95658 26.4119,-3.37552 33.0321,-2.70104 2.6641,0.27145 4.8533,0.35815 4.8649,0.19271 0.01,-0.16545 0.5132,-9.49229 1.1146,-20.72635 0.6015,-11.23406 1.2024,-20.52639 1.3353,-20.64963 0.133,-0.12323 8.6119,-5.71872 18.8422,-12.43442 10.2303,-6.7157 18.7129,-12.29986 18.8501,-12.40922 0.1371,-0.10936 -1.1279,-11.56371 -2.8116,-25.4541 l -3.0613,-25.25526 -4.5511,-4.86779 c -2.503,-2.67728 -5.2361,-6.39043 -6.0734,-8.25144 l -1.5225,-3.38365 1.9856,-3.57386 c 2.865,-5.15656 9.2298,-10.16365 12.9074,-10.15397 3.6191,0.009 9.4766,2.72567 14.5215,6.7337 l 3.8941,3.09367 39.5071,-16.17363 c 21.7289,-8.89549 40.2114,-16.35736 41.0721,-16.58191 1.45,-0.37828 1.6598,0.23502 2.8559,8.34982 3.0353,20.59139 11.4112,40.28442 26.7125,62.80448 5.3239,7.83563 5.5523,8.34375 3.9228,8.72607 -0.9516,0.22328 -5.0006,1.06425 -8.9977,1.86883 -3.9971,0.80458 -7.4986,1.83682 -7.7811,2.29386 -0.2824,0.45706 -3.9568,10.86867 -8.1652,23.13695 -4.2085,12.26829 -7.7487,22.43066 -7.8673,22.58305 -0.1899,0.24413 -41.8589,-12.84402 -42.99,-13.50308 -0.2442,-0.14232 -2.1039,9.22738 -4.1326,20.82152 -2.0288,11.59415 -3.8582,21.80964 -4.0655,22.70111 -0.3306,1.42191 0.462,1.9335 6.4577,4.1681 27.5428,10.26518 75.3395,32.55718 84.0078,39.18057 12.2343,9.34812 36.0347,34.1865 70.258,73.3221 20.9236,23.92676 30.4772,34.51487 50.7709,56.26801 l 13.9052,14.90531 5.2586,-6.76758 c 11.3773,-14.6419 35.1679,-38.42516 70.5544,-70.53268 20.5063,-18.60613 43.4877,-41.11812 47.8482,-46.87084 2.5487,-3.362 3.2432,-5.07448 4.0071,-9.87963 2.9356,-18.46614 15.9862,-42.55687 34.6426,-63.94813 9.8417,-11.28446 22.6068,-19.86008 32.8896,-22.09538 9.2652,-2.01408 8.0181,-0.7413 -12.8219,13.08595 l -20.1505,13.36981 -7.4679,16.63541 -7.4678,16.63541 6.3053,8.50585 c 3.4679,4.67821 6.4975,8.50696 6.7325,8.50833 0.235,0.002 5.8151,-3.27872 12.4004,-7.2891 6.5852,-4.01038 12.1454,-7.12223 12.3559,-6.91524 0.4148,0.40766 -1.2499,1.9802 -14.7507,13.93426 -10.8422,9.60006 -32.3912,31.4803 -40.3411,40.96118 -3.2168,3.83636 -12.9426,16.21732 -21.6128,27.51325 -36.1176,47.05568 -55.7343,70.48597 -76.3216,91.1589 -19.7826,19.86486 -26.8073,24.11026 -41.2097,24.90506 -6.5759,0.3629 -7.3387,0.2458 -10.8532,-1.6671 -10.6195,-5.7799 -29.5859,-25.86298 -68.5117,-72.54573 -21.7228,-26.05156 -35.8809,-42.10495 -46.4569,-52.67578 -8.6846,-8.68031 -15.7753,-14.27902 -17.3989,-13.73782 -0.4376,0.14588 -1.0188,1.2854 -1.2916,2.53232 -9.7959,44.76826 -23.8145,118.4298 -38.1902,200.67251 -6.649,38.0389 -7.0856,42.0535 -5.9666,54.8581 1.8892,21.6147 9.1083,65.3994 19.3401,117.2997 2.5099,12.7311 4.4603,23.2602 4.3342,23.3979 -0.1263,0.1376 -3.0554,-0.6424 -6.5094,-1.7335 -15.0684,-4.7602 -57.1874,-14.1284 -112.142,-24.9432 l -30.3121,-5.9652 -0.5911,-17.5177 c -0.3249,-9.6347 -0.8095,-21.1796 -1.0763,-25.6554 l -0.4852,-8.1377 -6.3939,-0.225 -6.394,-0.2251 0.021,2.9377 c 0.01,1.6157 0.5273,10.6104 1.1456,19.9881 1.9242,29.1808 1.6502,36.9134 -2.3087,65.1635 -8.0584,57.5037 -8.9061,67.0596 -7.4673,84.1782 2.1186,25.2058 8.3199,45.9762 17.872,59.8596 2.4411,3.5481 2.3719,4.317 -0.3886,4.317 -1.2678,0 -2.6032,1.3656 -5.1022,5.2179 -7.8608,12.1178 -22.8269,23.8272 -42.8951,33.561 -25.8293,12.5283 -47.2048,18.9718 -69.2155,20.8649 -4.8114,0.4138 -9.0509,0.9394 -9.4209,1.1681 -1.25,0.7726 -5.5111,13.7635 -5.9772,18.2228 l -0.4625,4.4264 8.0418,0.9851 c 4.423,0.5417 15.1914,1.1592 23.9297,1.372 25.7947,0.6284 42.3333,-2.0552 96.8777,-15.7195 49.4121,-12.3785 67.5374,-15.7022 89.1273,-16.3429 12.3207,-0.3657 22.0453,0.2753 106.1779,6.9954 104.8018,8.3711 137.8259,10.907 157.3878,12.0853 26.743,1.611 45.2722,-1.9657 53.6654,-10.3589 l 2.6243,-2.6243 5.7331,2.2565 c 21.4194,8.4303 44.8545,16.1767 61.5346,20.3397 15.8666,3.96 32.8472,5.7987 39.9124,4.3217 z m -35.6037,-13.2515 c -16.549,-2.7096 -31.9981,-7.8512 -51.0446,-16.9883 l -11.085,-5.3177 4.7944,-7.2001 c 2.6369,-3.9601 5.0434,-7.4782 5.3478,-7.8181 0.3043,-0.3399 5.2276,1.5303 10.9407,4.156 24.3731,11.2017 43.2564,18.044 71.4202,25.8789 l 4.4564,1.2397 0,3.4512 c 0,3.7397 -0.1232,3.8299 -6.2002,4.5431 -5.0219,0.5894 -18.9169,-0.3543 -28.6297,-1.9447 z m -588.5902,-0.2618 c -8.4212,-1.5008 -9.7308,-2.993 -2.0219,-2.3039 14.849,1.3273 37.3189,-5.6954 70.9144,-22.1635 24.4175,-11.9691 40.7164,-23.7367 46.4662,-33.548 l 2.1199,-3.6174 4.6897,0 c 4.0761,0 6.3479,0.7071 17.362,5.4033 16.8169,7.1706 20.4098,8.0722 29.7943,7.4771 14.5698,-0.9241 29.6832,-4.2694 59.9934,-13.2795 37.7359,-11.2176 44.5964,-12.4036 71.3058,-12.3275 50.344,0.1433 101.6638,9.6891 145.9303,27.1434 6.4451,2.5413 6.8012,2.5981 7.9114,1.263 0.6394,-0.769 11.5751,-14.0178 24.3016,-29.4419 l 23.1391,-28.0438 2.4366,1.2519 c 8.4378,4.3354 17.8966,12.582 22.1865,19.3432 7.0694,11.142 7.3698,26.7693 0.766,39.8542 -6.6009,13.0794 -23.0874,25.438 -39.8914,29.9037 -4.682,1.2443 -8.3449,1.437 -26.7382,1.4066 -28.1256,-0.047 -61.9213,-2.5318 -121.2896,-8.9199 -55.3039,-5.9507 -87.2113,-8.6497 -119.3545,-10.0959 -37.3327,-1.6798 -55.906,1.023 -115.0906,16.7488 -27.8081,7.3888 -48.8583,11.8382 -65.8768,13.9244 -11.1385,1.3653 -31.4508,1.3766 -39.0542,0.021 z m 441.9492,-60.5789 c -43.059,-16.7636 -93.2337,-25.7963 -143.551,-25.8424 -20.9377,-0.021 -33.8353,2.4141 -69.8513,13.1786 -23.3759,6.9866 -33.0336,9.4384 -45.8057,11.6284 -11.5267,1.9763 -24.5671,2.119 -30.5339,0.3341 -22.5255,-6.7388 -36.2382,-29.9636 -43.034,-72.8854 -3.9082,-24.6843 -3.8236,-26.1384 4.7277,-81.2907 2.313,-14.9171 4.2054,-27.4239 4.2054,-27.7927 0,-1.9187 31.4599,2.6832 63.1642,9.2395 65.3375,13.5115 103.3749,25.5974 164.4098,52.2392 17.7595,7.7519 145.9861,71.2492 145.9861,72.2916 0,0.9671 -41.5148,51.7213 -42.3059,51.7213 -0.091,0 -3.4257,-1.2696 -7.4114,-2.8213 z m 17.1118,-80.1944 c -5.2982,-3.0325 -9.8356,-5.8346 -10.083,-6.227 -0.5949,-0.9434 -2.8673,-21.6017 -3.8236,-34.7606 -1.1435,-15.734 -0.9424,-42.2751 0.4079,-53.8179 1.9296,-16.4955 6.9336,-36.3484 13.2591,-52.6045 3.5579,-9.1435 13.731,-30.165 18.3845,-37.9893 1.9856,-3.3387 3.6103,-6.3925 3.6103,-6.7861 0,-0.3937 -5.6041,-11.9197 -12.4536,-25.6134 -7.5379,-15.0701 -12.1734,-25.1779 -11.7439,-25.6074 1.3253,-1.3254 15.2651,-6.9928 19.2691,-7.8343 15.2619,-3.2073 33.2341,14.5385 36.7007,36.2385 0.9776,6.1192 0.05,12.9632 -7.7803,57.3738 -6.2372,35.3775 -11.5932,62.9493 -17.4641,89.9024 -5.138,23.5879 -17.4358,73.2395 -18.1402,73.2395 -0.2804,0 -4.8447,-2.4812 -10.1429,-5.5137 z m -51.4843,-25.0872 c -17.1158,-7.6995 -54.9691,-24.2393 -109.4717,-47.833 -6.9268,-2.9986 -12.5941,-5.7103 -12.5941,-6.0262 0,-0.7707 58.8689,-74.2981 67.3307,-84.0961 26.0233,-30.1329 57.7465,-56.5079 83.9425,-69.7907 4.9813,-2.5258 9.2076,-4.4247 9.3918,-4.2198 0.1842,0.2049 5.1018,10.401 10.9279,22.658 l 10.5929,22.2854 -3.9309,6.655 c -15.541,26.3114 -25.531,56.4703 -29.0071,87.5696 -2.0637,18.463 -2.1437,27.4374 -0.4865,54.5724 0.872,14.2797 1.5872,27.0922 1.5892,28.4722 l 0,2.5091 -4.0689,-1.8457 c -2.2379,-1.0151 -13.1366,-5.9247 -24.2194,-10.9102 l -3e-4,0 z m -284.797,-598.12069 c -11.1832,-17.67259 -19.6417,-36.7488 -24.3736,-54.96876 -4.4019,-16.94925 -5.4804,-25.38731 -5.4823,-42.89187 l -0,-15.50042 2.5282,-7.24691 c 1.3905,-3.9858 3.8921,-9.56595 5.5592,-12.40033 11.8996,-20.23209 37.1275,-36.73293 65.923,-43.11844 7.8245,-1.73511 29.424,-2.45906 35.8456,-1.20143 21.4393,4.19876 43.9024,20.50143 55.6423,40.38269 3.3466,5.66734 7.2188,15.47883 6.4213,16.27072 -0.3543,0.35179 -17.8577,7.80845 -38.8965,16.57033 l -38.2526,15.93071 -2.9557,-2.34097 c -5.3138,-4.20856 -9.6997,-5.67699 -18.034,-6.03785 -5.9721,-0.25857 -8.3544,-0.0378 -11.1631,1.03494 -7.906,3.01934 -12.1563,9.54644 -13.4176,20.60497 -1.2027,10.54553 1.1912,17.75086 7.7679,23.38029 l 3.119,2.66975 2.6434,19.28966 c 1.9786,14.43816 2.4139,19.42634 1.7304,19.83308 -0.5024,0.29886 -6.842,4.5487 -14.0885,9.44406 -7.2465,4.89535 -13.5874,8.92312 -14.0909,8.95059 -0.5034,0.0274 -3.3944,-3.8672 -6.4239,-8.65481 z"
     id="path4172"
     inkscape:connector-curvature="0" />
  <path
     style="fill:#000000;fill-opacity:0.92038215;stroke:none;stroke-width:0.026;stroke-miterlimit:4;stroke-dasharray:none;stroke-opacity:1"
     d="m 1383.5379,850.19718 c 0,-1.63967 -0.1029,-2.4661 -0.3073,-2.4661 -0.1691,0 -8.4613,-0.68893 -18.4272,-1.53095 -19.9122,-1.68238 -22.1006,-1.73386 -28.5323,-0.67122 -6.5016,1.07417 -11.6061,2.71673 -17.1257,5.51083 l -3.1512,1.59513 33.7719,0.014 33.7719,0.014 0,-2.46611 z"
     id="path4174"
     inkscape:connector-curvature="0" />
  <path
     style="fill:#000000;fill-opacity:0.92038215;stroke:none;stroke-width:0.026;stroke-miterlimit:4;stroke-dasharray:none;stroke-opacity:1"
     d="m 1194.9321,852.66329 7.1752,-0.13699 -1.7678,-3.1271 c -6.9901,-12.36469 -14.7411,-19.50537 -23.0944,-21.27591 -2.6569,-0.56315 -9.5436,-0.50792 -11.7875,0.0946 l -1.7485,0.46943 -3.4114,7.53531 c -1.8763,4.14442 -4.3161,9.53902 -5.4218,11.98799 l -2.0104,4.45269 7.3291,0 7.3292,0 2.9922,-6.17973 2.9923,-6.17973 1.0268,0.12529 c 0.5647,0.0689 1.8462,0.50875 2.8478,0.97745 2.3653,1.10686 5.6805,4.41282 7.9908,7.96857 0.9302,1.43171 1.847,2.78807 2.0372,3.01412 0.297,0.35272 1.364,0.39157 7.5212,0.27404 z"
     id="path4176"
     inkscape:connector-curvature="0" />
  <path
     style="fill:none;fill-rule:evenodd;stroke:#000000;stroke-width:0;stroke-linecap:butt;stroke-linejoin:miter;stroke-miterlimit:4;stroke-dasharray:none;stroke-opacity:1"
     d="m 1202.0986,852.56832 -14.118,0.22861"
     id="path4180"
     inkscape:connector-curvature="0" />
  <path
     style="fill:none;fill-opacity:0.92038215;stroke:#000000;stroke-width:5.17333317;stroke-miterlimit:4;stroke-dasharray:none;stroke-opacity:1"
     d="m 1359.7069,609.51378 c 3.6895,-0.29618 5.5493,-0.53064 8.1164,-1.02332 8.7258,-1.67466 16.8671,-5.4013 23.7568,-10.87463 1.7926,-1.42407 3.7564,-3.17227 5.193,-4.62302 l 1.1711,-1.18258 -1.9999,-2.9985 -1.9999,-2.9985 0,-1.00499 0,-1.00499 -1.9719,-0.61466 c -6.0306,-1.87977 -9.2359,-2.49036 -12.4318,-2.36823 -4.2554,0.1626 -7.783,1.01818 -11.4102,2.76736 -6.4669,3.11848 -11.6514,8.62908 -15.9417,16.9441 l -1.0186,1.97436 0.3554,0.12385 c 0.1955,0.0681 0.7738,0.32628 1.2855,0.57373 2.5597,1.23783 3.6943,3.05519 3.3045,5.29323 -0.071,0.41071 -0.1599,0.82438 -0.1961,0.91932 -0.057,0.14972 0.1594,0.1701 1.6322,0.15339 0.9341,-0.0103 1.9041,-0.0357 2.1556,-0.0559 z"
     id="path4190"
     inkscape:connector-curvature="0" />
  <path
     d="m 221.1187,998.456 q 0,7.76 10.3467,18.8827 10.3466,11.1226 18.624,11.1226 54.32,0 152.6133,-50.6987 9.312,59.4934 16.0373,175.3761 1.0347,19.6586 0,27.4186 l -2.0693,14.4854 q -9.312,65.184 -9.312,75.0133 0,52.768 20.6934,80.704 l -4.1387,0 q -11.8987,24.832 -54.8374,43.456 -38.2826,17.072 -69.84,17.072 -6.7253,13.4507 -6.7253,24.3147 19.6587,3.104 40.352,3.104 28.4533,0 90.5333,-16.5547 62.0801,-16.5547 92.0854,-16.5547 l 6.208,0 175.8933,13.968 q 78.1174,6.208 88.9814,6.208 34.144,0 44.4906,-13.4506 68.288,27.4187 100.3627,27.4187 18.1067,0 18.1067,-13.9681 0,-4.1386 -2.0694,-14.4853 -30.0053,-8.7947 -91.0506,-35.1787 2.0693,-8.2773 2.0693,-12.416 0,-38.2826 -62.5973,-66.736 18.624,-86.3946 44.4906,-220.384 0,-1.0346 0.5173,-3.6213 0,-9.8293 -8.7946,-26.1253 -8.7947,-16.296 -17.072,-21.4694 -1.0347,-1.0346 -24.3147,-5.1733 -62.08,21.2107 -102.432,62.5973 -37.248,38.2827 -95.7067,111.2267 -23.28,-97.2587 -23.28,-150.544 0,-6.208 12.9334,-73.9787 12.9333,-67.7707 29.488,-150.544 13.968,20.176 88.9813,107.088 24.3147,28.4533 41.3867,28.4533 31.5573,0 83.808,-61.0453 13.968,-16.0373 67.2533,-89.4987 8.2773,-11.3813 10.864,-13.4506 l 51.7333,-42.4214 -2.0693,-3.104 2.0693,-2.5866 q -8.7946,-8.7947 -19.1413,-14.4854 -6.208,6.208 -18.624,14.4854 l -1.0346,-2.0694 10.3466,-25.34931 44.4907,-28.45334 q -2.5867,-9.312 -10.3467,-23.28 -33.6266,10.864 -49.664,26.384 -16.0373,15.52001 -28.9706,49.14665 -11.3814,29.488 -23.28,40.8694 L 751.3854,884.6426 q -56.9067,-71.392 -57.9413,-72.944 -35.1787,-41.904 -65.184,-65.7013 -19.1414,-15.0027 -84.3254,-39.31734 l 4.1387,-21.21067 41.3867,11.38133 16.5546,-50.69867 q 23.7974,0 26.9014,-10.34666 -28.9707,-37.248 -37.248,-79.66934 -16.5547,-85.87733 -91.0507,-85.87733 -45.008,0 -76.5653,24.31467 -34.6614,26.384 -34.6614,69.84 0,55.35466 41.3867,116.91733 l -2.0693,29.488 -3.6214,-1.03466 -2.0693,0 q -91.0507,0 -139.68,112.26134 -38.2827,88.464 -65.7014,173.824 -0.5173,1.0347 -0.5173,2.5867 z M 406.8414,560.27462 q 0,-34.144 32.592,-56.90667 29.488,-20.176 65.184,-20.176 23.7973,0 45.5253,17.072 21.728,17.072 28.4534,39.83467 l -77.0827,32.07467 q -8.7947,-8.79467 -23.28,-8.79467 -23.28,0 -23.28,28.97067 0,11.89866 11.3813,20.176 l 5.1734,37.76533 -28.4534,19.14133 q -36.2133,-51.216 -36.2133,-109.15733 z M 302.34,950.344 360.2814,831.3573 q 12.416,1.0347 24.3146,39.8347 9.8294,31.5573 10.864,51.7333 z m -68.288,47.5947 q 0,-0.5174 25.8667,-73.9787 35.696,-100.88 60.528,-136.576 47.5947,-68.80538 124.6774,-63.632 l 2.0693,-41.38671 38.2827,-25.34934 -6.208,-51.216 q -8.7947,-7.76 -11.8987,-15.52 0.5173,-5.69066 11.8987,-13.968 9.8293,0 20.176,10.34667 l 82.256,-33.62667 q 2.0693,37.248 33.1093,79.152 l -18.1067,3.62134 -16.0373,46.56 -43.456,-13.968 -8.2773,46.56 q 30.0053,10.34671 84.8426,37.24801 20.6934,13.4507 66.736,66.736 38.2827,44.4907 75.0134,82.7733 13.968,-21.2106 68.8053,-71.392 53.2853,-47.5946 58.4587,-57.9413 2.0693,-25.3493 25.3493,-56.90668 24.832,-34.144 48.6293,-35.17867 l -39.8346,26.38401 -15.0027,33.62664 q 4.1387,6.208 13.4507,18.1067 4.656,-2.5867 24.832,-15.0027 -41.904,35.1787 -66.736,68.288 -32.592,42.9387 -52.768,67.2534 -42.4214,50.6986 -58.976,58.4586 -8.7947,4.1387 -20.6934,4.1387 -12.416,0 -70.616,-70.8747 -58.2,-70.8746 -68.5466,-70.8746 -15.52,68.288 -43.456,229.696 -2.0694,11.8987 -2.0694,20.176 0,27.936 24.3147,149.5093 -26.384,-9.312 -147.9573,-32.592 -1.0347,-72.4266 -13.9681,-166.5813 -3.104,-23.28 -3.104,-27.4187 l 1.0347,-3.104 q 68.8054,-32.592 71.392,-33.6267 44.4907,-23.7973 61.0454,-47.0773 -7.2427,-15.0027 -15.0027,-15.0027 -13.968,13.968 -22.2453,13.968 -3.104,0 -4.1387,-3.104 2.5867,-10.864 33.6267,-20.176 28.9706,-8.2773 28.9706,-22.2453 l 0,-4.1387 -37.248,-3.104 q -28.4533,0 -48.6293,22.7627 -16.5547,22.7627 -33.1093,45.008 -4.656,5.6907 -43.4561,15.52 -1.0346,-28.4533 -12.416,-60.0107 -15.0026,-40.352 -36.2133,-40.352 l -5.1733,0 q -1.552,0.5173 -4.1387,1.0347 l -64.6667,142.784 4.1387,6.7253 150.544,-45.5253 q 11.8987,-3.6213 40.352,-41.3867 25.8667,-34.144 53.8027,-34.144 7.2427,0 10.864,1.0347 -28.4533,9.312 -33.6267,11.8987 -17.5893,9.8293 -17.5893,28.4533 0,5.1733 1.0347,7.2427 9.312,4.656 17.072,4.656 8.2773,0 16.0373,-5.6907 -27.4187,31.5573 -128.2987,65.7013 l 1.0347,3.104 q -21.2107,12.9334 -72.4267,31.5574 -54.32,19.6587 -73.4613,19.6587 -5.1734,0 -12.9334,-5.9494 -7.76,-5.9493 -7.76,-11.1226 z m 365.7547,207.4506 q 61.5627,-77.6 71.392,-88.464 46.56,-50.6986 88.464,-69.3226 l 21.2107,44.4906 q -34.6613,54.8374 -34.6613,124.16 0,2.0694 3.104,54.8374 -27.936,-13.4507 -149.5094,-65.7014 z m -178.9973,58.976 q 0,-7.76 11.8987,-82.256 23.28,0 101.3973,18.1067 62.08,14.4853 138.6453,49.664 20.176,8.7947 132.4374,65.7013 l -41.904,51.216 q -67.7707,-28.9706 -157.2694,-28.9706 -21.728,0 -64.1493,13.4506 -42.4213,13.4507 -63.632,13.4507 -42.9387,0 -54.32,-71.9093 -3.104,-19.6587 -3.104,-28.4534 z m -114.3307,158.304 8.2773,1.0347 q 22.2454,0 64.6667,-20.6933 45.008,-21.2107 52.2507,-39.3174 l 6.208,0 q 3.104,0 17.5893,6.7254 14.4854,6.7253 22.7627,6.7253 21.728,0 63.8907,-13.192 42.1626,-13.192 63.8906,-13.192 87.9467,0 161.408,30.5227 l 48.6294,-58.976 q 29.488,15.52 29.488,39.8346 0,21.728 -20.176,37.248 -18.1067,13.968 -40.8694,13.968 -45.5253,0 -136.3173,-10.088 -90.792,-10.088 -136.3173,-10.088 -30.5227,0 -89.4987,16.296 -58.976,16.296 -89.4987,16.296 -18.1067,0 -26.384,-3.104 z m 452.1494,-210.5546 q 0,-59.4934 37.248,-120.0214 l -25.3494,-50.6986 q 16.5547,-8.2774 22.2454,-8.2774 13.4506,0 23.5386,13.968 10.088,13.968 10.088,27.936 0,4.656 -9.8293,60.528 -15.0027,84.8427 -33.6267,153.648 -6.7253,-3.6213 -19.6586,-11.3813 -4.656,-31.5573 -4.656,-65.7013 z m 82.7733,190.3786 9.8293,-14.4853 q 42.9387,21.2107 85.36,31.5573 l 0,6.208 q -4.1386,1.0347 -11.3813,1.0347 -39.3173,0 -83.808,-24.3147 z M 537.2094,593.38395 q 6.7253,2.06934 4.656,7.24267 25.8667,0 42.9387,-18.10667 l -4.1387,-6.208 0,-2.06933 q -9.312,-3.104 -13.4507,-3.104 -19.6586,0 -30.0053,22.24533 z"
     id="path8-7"
     inkscape:connector-curvature="0"
     style="fill:none;stroke:#000000;stroke-width:0.51733327" />
  <path
     style="fill:#000000;fill-opacity:0.92038215;stroke:none;stroke-width:0.026;stroke-miterlimit:4;stroke-dasharray:none;stroke-opacity:1"
     d="m 430.2837,1114.42 c -0.041,-0.4335 -0.1112,-1.3735 -0.1531,-2.0894 -0.1552,-2.6625 -0.9136,-13.1157 -1.3122,-18.0847 -2.2469,-28.0082 -5.3114,-56.1579 -9.6501,-88.6426 -2.5979,-19.4509 -3.4725,-26.83 -3.8243,-32.2649 -0.047,-0.6928 0.036,-1.0801 0.5153,-2.4636 l 0.5685,-1.6415 11.0975,-5.2515 c 33.1338,-15.6797 56.6072,-26.7331 59.1717,-27.8633 1.4493,-0.6388 4.6054,-2.3499 9.9912,-5.4169 23.7224,-13.509 40.958,-27.1942 50.8711,-40.3919 l 1.1625,-1.5478 -0.6412,-1.2795 c -0.827,-1.6503 -2.1104,-3.882 -2.9813,-5.1843 -3.231,-4.8309 -6.2709,-7.3805 -9.5701,-8.0266 l -1.1896,-0.233 -2.0985,1.9945 c -7.3687,7.0029 -13.4094,10.9067 -18.2962,11.8238 -1.5686,0.2944 -3.1404,0.2148 -4.1104,-0.2082 -1.1797,-0.5145 -2.3555,-2.04 -2.3635,-3.0665 0,-0.4878 0.5789,-1.9564 1.1901,-2.9991 1.9258,-3.286 6.3909,-6.7777 12.6445,-9.8881 5.2083,-2.5905 11.3644,-4.9135 20.0028,-7.5481 7.305,-2.2279 10.7522,-3.5255 14.9336,-5.6211 4.2998,-2.1549 6.9382,-3.988 9.392,-6.5252 2.392,-2.4733 3.7381,-5.004 4.2347,-7.9612 l 0.086,-0.5138 -33.9999,0 -34,0 -0.8399,0.5031 c -2.9056,1.7403 -7.1298,4.8784 -9.8117,7.2889 -3.902,3.5073 -6.0752,5.889 -8.8349,9.6826 -6.6467,9.137 -20.1532,27.5145 -26.3766,35.8891 -4.9114,6.6091 -4.8579,6.5425 -5.843,7.2788 -3.3531,2.5065 -10.2173,5.2743 -21.8332,8.8036 -6.3,1.9141 -20.5948,5.7717 -20.7633,5.6032 -0.041,-0.041 -0.1335,-1.2069 -0.2064,-2.5911 -0.7764,-14.8265 -3.5503,-29.9642 -8.4195,-45.9476 -2.7441,-9.0075 -5.6759,-16.7877 -8.9703,-23.8047 l -1.2704,-2.7059 -7.3922,0 c -4.0657,0 -7.3716,0.046 -7.3465,0.1027 0.026,0.057 0.7656,1.5516 1.6456,3.3224 3.4416,6.926 6.3737,14.7526 9.9574,26.5791 5.8675,19.3635 9.1228,34.8319 10.0184,47.6053 0.074,1.0527 0.089,1.9548 0.036,2.0046 -0.055,0.05 -4.1999,1.2957 -9.2109,2.7685 -15.5823,4.5799 -80.8034,23.784 -82.7327,24.3604 -1.0069,0.3008 -1.8583,0.5195 -1.8918,0.486 -0.047,-0.048 49.2151,-101.3637 51.5557,-106.0303 l 0.6012,-1.1988 -7.4339,3e-4 -7.434,3e-4 -26.5023,58.5354 c -14.5764,32.1944 -26.6193,58.7828 -26.762,59.0853 l -0.2597,0.5499 1.9419,3.1492 c 1.068,1.7321 1.9555,3.1632 1.9721,3.1802 0.015,0.016 10.5074,-3.1372 23.313,-7.0095 12.8055,-3.8722 40.2372,-12.1677 60.9593,-18.4343 20.7221,-6.2665 44.2117,-13.3682 52.1992,-15.7815 7.9874,-2.4133 14.9705,-4.5937 15.5178,-4.8454 6.4664,-2.9736 16.3904,-12.6941 29.0175,-28.423 3.209,-3.9973 4.3304,-5.4325 7.8672,-10.0698 6.3091,-8.272 9.6592,-12.1344 15.1514,-17.4682 11.1367,-10.8154 22.6119,-16.9103 34.9948,-18.5869 2.3052,-0.3121 9.4048,-0.3543 11.988,-0.071 2.5216,0.2764 5.4245,0.9 5.1884,1.1146 -0.066,0.06 -3.695,1.2954 -8.0655,2.7462 -12.6456,4.1979 -20.4551,6.9585 -24.4021,8.6259 -2.82,1.1914 -6.4935,3.62 -9.3698,6.1947 -4.5002,4.0282 -7.5874,9.1951 -8.9496,14.9788 -0.6277,2.6651 -0.8246,4.5272 -0.8258,7.8093 -0.001,3.117 0.1392,4.5474 0.5978,6.0967 l 0.2638,0.8905 1.6141,0.7403 c 6.2534,2.8683 12.4756,4.207 17.3013,3.7226 1.8773,-0.1885 4.2603,-0.7015 5.8804,-1.266 1.7489,-0.6093 4.5271,-2.0103 6.3571,-3.2056 1.4786,-0.9658 1.6386,-1.039 1.8369,-0.8407 0.1981,0.1983 0.133,0.3104 -0.748,1.2868 -1.5536,1.7217 -5.5659,5.5937 -7.6407,7.3736 -12.1287,10.4049 -30.0174,20.9775 -53.8031,31.7985 -17.1173,7.7874 -38.4576,16.1169 -61.7612,24.1065 -2.1475,0.7363 -3.9267,1.3557 -3.9537,1.3764 -0.026,0.021 0.1738,0.7035 0.4464,1.5172 l 0.4956,1.4794 -0.2892,0.2182 c -0.5818,0.4389 -6.44,3.712 -9.3885,5.2456 -11.1073,5.7772 -27.7076,12.9699 -46.4282,20.1167 -42.6702,16.2898 -73.3057,25.2266 -88.5056,25.8187 -2.5761,0.1003 -3.6353,-0.031 -5.6619,-0.7101 -4.1396,-1.3841 -10.2281,-5.5658 -13.6217,-9.3557 -1.9889,-2.2211 -3.0959,-4.3645 -3.332,-6.4511 -0.1081,-0.956 -0.3471,-0.1826 3.3719,-10.9035 4.4807,-12.9161 20.3734,-58.1789 24.1595,-68.807 8.1385,-22.8458 16.4408,-44.5786 23.8809,-62.5129 1.71,-4.1219 5.3393,-12.6748 5.4798,-12.9142 0.036,-0.057 -2.6929,-0.088 -6.0591,-0.069 l -6.1203,0.036 -2.051,4.9322 c -20.4798,49.2495 -36.7693,93.1621 -53.3639,143.8559 l -1.6145,4.9322 0.021,1.3701 c 0.061,4.3024 2.5791,9.4404 7.5554,15.4132 5.7394,6.8886 11.7369,11.6547 16.7115,13.2803 2.1149,0.6911 2.679,0.7403 7.4901,0.6527 22.546,-0.4102 52.0354,-7.7579 86.5924,-21.5757 17.6271,-7.0482 37.1473,-15.9755 57.038,-26.0853 3.2641,-1.6591 5.9728,-2.9786 6.0192,-2.9322 0.2359,0.2359 2.5535,16.6859 3.9392,27.9603 2.9307,23.8452 5.6816,52.9053 8.216,86.7931 0.6291,8.4114 1.5793,21.986 1.5793,22.5608 l 0,0.4563 6.8637,0 6.8638,0 -0.077,-0.7878 z"
     id="path4164-1"
     inkscape:connector-curvature="0" />
  <path
     style="fill:#000000;fill-opacity:0.92038215;stroke:none;stroke-width:0.026;stroke-miterlimit:4;stroke-dasharray:none;stroke-opacity:1"
     d="m 938.0908,1438.5305 c 9.0861,-1.8995 12.1244,-8.2687 9.9195,-20.7942 l -1.0056,-5.7125 -13.9504,-4.8144 c -17.8588,-6.1631 -32.3262,-11.7746 -56.9641,-22.0946 l -19.763,-8.278 0.2664,-2.2698 c 0.1465,-1.2483 0.315,-6.6292 0.3744,-11.9575 0.099,-8.845 -0.069,-10.1111 -1.9291,-14.5539 -7.5932,-18.1378 -23.6583,-32.6592 -51.6138,-46.6542 -4.3654,-2.1854 -7.9371,-4.346 -7.9371,-4.8013 0,-0.4553 2.9505,-14.8238 6.5567,-31.9297 7.714,-36.5913 24.1409,-118.2155 32.5839,-161.907 l 5.9572,-30.8275 -1.2845,-5.7736 c -1.5783,-7.0941 -9.642,-23.4624 -15.1563,-30.7654 -6.5541,-8.6801 -8.2697,-9.6662 -21.4519,-12.3302 l -11.4368,-2.3112 -6.9906,2.441 c -26.0116,9.0829 -55.2521,25.426 -76.4925,42.7532 -20.5692,16.7796 -55.0713,54.9728 -103.2867,114.3361 -6.3185,7.7793 -11.7416,14.1442 -12.0515,14.1442 -0.3099,0 -0.9432,-1.831 -1.4071,-4.0689 -0.4641,-2.2379 -2.2315,-10.1721 -3.9276,-17.6317 -5.9828,-26.3122 -11.5501,-56.3024 -14.3872,-77.5021 -3.2943,-24.6145 -4.7246,-47.8147 -3.5059,-56.8658 1.9056,-14.1532 16.5053,-91.2282 35.3089,-186.4028 6.32,-31.9889 6.8818,-34.2922 8.013,-32.8565 0.6691,0.8491 4.4102,5.6921 8.3135,10.7622 17.4833,22.7094 81.6586,97.9849 91.793,107.6701 7.5929,7.2564 11.9515,10.3948 19.049,13.7161 13.5394,6.3359 30.7593,0.437 54.3865,-18.6305 12.5854,-10.1567 31.7134,-30.0472 46.3508,-48.1986 5.8141,-7.2099 31.6059,-41.6228 44.436,-59.2891 5.2627,-7.2464 12.9837,-17.7575 17.1579,-23.3578 l 7.5895,-10.1826 25.3707,-20.8183 c 13.9539,-11.4501 25.9126,-21.233 26.5748,-21.7399 1.0172,-0.7786 1.0468,-1.1788 0.1908,-2.5795 -0.827,-1.3532 -0.8298,-1.8791 -0.015,-2.8604 0.8511,-1.0255 0.4299,-1.7172 -2.8619,-4.7004 -2.1228,-1.9238 -6.1071,-5.0067 -8.8538,-6.8509 l -4.9941,-3.3529 -3.1436,2.6524 c -1.729,1.4588 -5.849,4.6234 -9.1555,7.0324 -5.7106,4.1605 -8.3261,4.9366 -8.3261,2.4705 0,-0.5617 2.3542,-6.7375 5.2314,-13.7239 l 5.2314,-12.70268 21.7006,-13.87835 c 20.4767,-13.09559 21.6943,-14.00424 21.5894,-16.11038 -0.1376,-2.76126 -8.3891,-20.11411 -9.5646,-20.11411 -1.5573,0 -15.786,5.56742 -23.0021,9.00029 -9.0108,4.2867 -20.217,11.76489 -25.4069,16.95488 -10.9262,10.9262 -18.4715,23.62055 -28.3189,47.64455 -2.9587,7.2183 -6.8249,16.0191 -8.5915,19.5573 -7.5635,15.149 -7.4857,15.0645 -67.3101,73.1435 -30.7018,29.8061 -56.1531,54.1929 -56.5583,54.1929 -0.4053,0 -13.3312,-15.8685 -28.7244,-35.2634 -32.813,-41.3433 -34.7921,-43.7342 -49.8844,-60.2623 -18.2021,-19.9338 -38.5248,-38.65 -50.8995,-46.8759 -11.0651,-7.3554 -39.4192,-20.3884 -67.2317,-30.90332 -7.9119,-2.99121 -11.0431,-4.52914 -11.0441,-5.42454 -7e-4,-0.6873 0.8705,-5.53074 1.9362,-10.76312 1.0657,-5.23238 1.9376,-9.63983 1.9376,-9.79435 0,-0.7309 3.5393,0.1011 21.7694,5.11755 10.7901,2.96916 19.6875,5.32329 19.772,5.23139 0.084,-0.092 3.7939,-11.32717 8.2431,-24.96729 l 8.0893,-24.8002 8.0704,-1.00168 c 4.9921,-0.6196 9.5971,-1.7005 12.0735,-2.83386 4.3395,-1.98611 7.2261,-5.34326 6.0187,-6.99999 -7.6416,-10.48579 -16.3899,-24.79905 -21.2987,-34.84731 -7.1765,-14.69006 -11.195,-26.38117 -15.0392,-43.75387 -6.7958,-30.71159 -15.2083,-48.48058 -29.7715,-62.88403 -17.6164,-17.42312 -40.8534,-24.73688 -71.2603,-22.42888 -31.133,2.36312 -55.7769,12.99505 -75.3646,32.51395 -11.7535,11.71221 -17.8825,22.37716 -22.2474,38.71226 -1.7958,6.7204 -1.9864,8.84456 -2.0222,22.53278 -0.047,17.13772 1.4714,28.08134 6.1383,44.30226 5.4204,18.83956 16.2347,42.34666 28.3065,61.52999 l 6.3139,10.03339 -0.9422,15.11291 c -0.5182,8.3121 -1.0153,15.19413 -1.1047,15.29341 -0.089,0.099 -1.2003,-0.1171 -2.4687,-0.4809 -3.3655,-0.9652 -21.149,0.3141 -30.2566,2.17665 -16.4666,3.3675 -33.2291,10.7085 -47.5493,20.8237 -4.0495,2.8605 -11.9212,9.7347 -17.4927,15.2761 -15.7125,15.6275 -27.5717,32.5195 -39.4483,56.189 -4.8869,9.7396 -16.686,36.2834 -16.686,37.5379 0,0.2409 2.5285,0.4321 5.6189,0.4248 l 5.6189,-0.013 1.8613,-4.4431 c 1.0237,-2.4437 5.2906,-11.4183 9.4821,-19.9435 12.9672,-26.3751 22.7477,-40.5086 39.7145,-57.3902 19.7045,-19.6056 39.0858,-30.3263 64.9078,-35.9033 9.059,-1.9566 26.4119,-3.3756 33.0321,-2.7011 2.6641,0.2715 4.8533,0.3582 4.8649,0.1927 0.01,-0.1654 0.5132,-9.49228 1.1146,-20.72634 0.6015,-11.23406 1.2024,-20.52639 1.3353,-20.64963 0.133,-0.1232 8.6119,-5.71872 18.8421,-12.43442 10.2304,-6.7157 18.7129,-12.29986 18.8502,-12.40922 0.1371,-0.1094 -1.128,-11.56371 -2.8116,-25.4541 l -3.0613,-25.25526 -4.5511,-4.86779 c -2.503,-2.67728 -5.2361,-6.39043 -6.0735,-8.25144 l -1.5224,-3.38365 1.9856,-3.57386 c 2.8649,-5.15656 9.2298,-10.16365 12.9074,-10.15397 3.6191,0.009 9.4766,2.72567 14.5215,6.7337 l 3.8941,3.09335 39.5071,-16.17363 c 21.7289,-8.89549 40.2113,-16.35736 41.0721,-16.58191 1.45,-0.37828 1.6597,0.23502 2.8559,8.34982 3.0352,20.59139 11.4112,40.28442 26.7124,62.80448 5.3239,7.83563 5.5523,8.34375 3.9229,8.72607 -0.9516,0.2233 -5.0006,1.06425 -8.9978,1.86883 -3.997,0.8046 -7.4985,1.83682 -7.781,2.29386 -0.2825,0.4571 -3.9568,10.86867 -8.1653,23.13695 -4.2084,12.26829 -7.7487,22.43066 -7.8672,22.58305 -0.1899,0.2441 -41.8589,-12.84402 -42.99,-13.50308 -0.2442,-0.1423 -2.104,9.22738 -4.1327,20.82152 -2.0287,11.59415 -3.8582,21.80964 -4.0655,22.70111 -0.3306,1.42191 0.462,1.9335 6.4578,4.1681 27.5428,10.26516 75.3395,32.55716 84.0078,39.18056 12.2342,9.3481 36.0346,34.1865 70.258,73.3221 20.9235,23.9268 30.4772,34.5149 50.7708,56.268 l 13.9052,14.9053 5.2587,-6.7676 c 11.3772,-14.6419 35.1678,-38.4251 70.5543,-70.5326 20.5063,-18.6062 43.4877,-41.1181 47.8482,-46.8709 2.5487,-3.362 3.2432,-5.0744 4.0071,-9.8796 2.9356,-18.4661 15.9863,-42.5569 34.6426,-63.94813 9.8417,-11.28446 22.6068,-19.86008 32.8896,-22.09538 9.2652,-2.01408 8.0181,-0.7413 -12.8219,13.08595 l -20.1505,13.36981 -7.4678,16.63545 -7.4678,16.6354 6.3052,8.5058 c 3.4679,4.6782 6.4976,8.507 6.7325,8.5084 0.235,0 5.8152,-3.2788 12.4004,-7.2891 6.5852,-4.0104 12.1454,-7.1223 12.356,-6.9153 0.4147,0.4077 -1.25,1.9802 -14.7507,13.9343 -10.8422,9.6 -32.3912,31.4803 -40.3411,40.9612 -3.2169,3.8363 -12.9427,16.2173 -21.6129,27.5132 -36.1175,47.0557 -55.7343,70.486 -76.3216,91.1589 -19.7826,19.8649 -26.8072,24.1102 -41.2097,24.9051 -6.5759,0.3629 -7.3387,0.2458 -10.8531,-1.6671 -10.6196,-5.7799 -29.586,-25.863 -68.5118,-72.5458 -21.7228,-26.0515 -35.8809,-42.1049 -46.4569,-52.6758 -8.6845,-8.6803 -15.7752,-14.279 -17.3988,-13.7378 -0.4376,0.1459 -1.0188,1.2854 -1.2917,2.5324 -9.7959,44.7682 -23.8145,118.4297 -38.1901,200.6725 -6.6491,38.0389 -7.0857,42.0535 -5.9666,54.8581 1.8891,21.6147 9.1083,65.3994 19.3401,117.2997 2.5098,12.7311 4.4602,23.2602 4.3341,23.3979 -0.1262,0.1376 -3.0553,-0.6424 -6.5093,-1.7335 -15.0685,-4.7602 -57.1874,-14.1284 -112.142,-24.9432 l -30.3121,-5.9652 -0.5911,-17.5177 c -0.3249,-9.6347 -0.8095,-21.1796 -1.0763,-25.6554 l -0.4853,-8.1377 -6.3939,-0.225 -6.394,-0.2251 0.021,2.9377 c 0.01,1.6157 0.5273,10.6104 1.1456,19.9881 1.9242,29.1808 1.6503,36.9134 -2.3087,65.1635 -8.0584,57.5037 -8.9061,67.0596 -7.4673,84.1782 2.1186,25.2058 8.3199,45.9762 17.872,59.8596 2.4411,3.5481 2.372,4.317 -0.3885,4.317 -1.2679,0 -2.6032,1.3656 -5.1022,5.2179 -7.8609,12.1178 -22.827,23.8272 -42.8952,33.561 -25.8293,12.5283 -47.2047,18.9718 -69.2155,20.8649 -4.8114,0.4138 -9.0509,0.9394 -9.4209,1.1681 -1.2499,0.7726 -5.5111,13.7635 -5.9771,18.2228 l -0.4625,4.4264 8.0418,0.9851 c 4.4229,0.5417 15.1913,1.1592 23.9296,1.372 25.7947,0.6284 42.3333,-2.0552 96.8777,-15.7195 49.4122,-12.3785 67.5375,-15.7022 89.1274,-16.3429 12.3207,-0.3657 22.0452,0.2753 106.1779,6.9954 104.8017,8.3711 137.8258,10.907 157.3877,12.0853 26.743,1.611 45.2722,-1.9657 53.6654,-10.3589 l 2.6243,-2.6243 5.7331,2.2565 c 21.4194,8.4303 44.8545,16.1767 61.5346,20.3397 15.8666,3.96 32.8472,5.7987 39.9124,4.3217 z M 902.487,1425.279 c -16.549,-2.7096 -31.9981,-7.8512 -51.0446,-16.9883 l -11.085,-5.3177 4.7944,-7.2001 c 2.637,-3.9601 5.0435,-7.4782 5.3478,-7.8181 0.3043,-0.3399 5.2276,1.5303 10.9407,4.156 24.3731,11.2017 43.2564,18.044 71.4202,25.8789 l 4.4564,1.2397 0,3.4512 c 0,3.7397 -0.1232,3.8299 -6.2002,4.5431 -5.0219,0.5894 -18.9169,-0.3543 -28.6297,-1.9447 z m -588.5901,-0.2618 c -8.4212,-1.5008 -9.7308,-2.993 -2.0219,-2.3039 14.849,1.3273 37.3188,-5.6954 70.9144,-22.1635 24.4174,-11.9691 40.7163,-23.7367 46.4661,-33.548 l 2.12,-3.6174 4.6897,0 c 4.0761,0 6.3479,0.7071 17.3619,5.4033 16.817,7.1706 20.4099,8.0722 29.7944,7.4771 14.5698,-0.9241 29.6831,-4.2694 59.9934,-13.2795 37.7359,-11.2176 44.5964,-12.4036 71.3058,-12.3275 50.3439,0.1433 101.6638,9.6891 145.9303,27.1434 6.445,2.5413 6.8011,2.5981 7.9113,1.263 0.6394,-0.769 11.5751,-14.0178 24.3016,-29.4419 l 23.1391,-28.0438 2.4366,1.2519 c 8.4378,4.3354 17.8966,12.582 22.1865,19.3432 7.0695,11.142 7.3698,26.7693 0.766,39.8542 -6.6009,13.0794 -23.0874,25.438 -39.8914,29.9037 -4.6819,1.2443 -8.3449,1.437 -26.7382,1.4066 -28.1256,-0.047 -61.9212,-2.5318 -121.2895,-8.9199 -55.304,-5.9507 -87.2113,-8.6497 -119.3545,-10.0959 -37.3328,-1.6798 -55.906,1.023 -115.0907,16.7488 -27.8081,7.3888 -48.8583,11.8382 -65.8767,13.9244 -11.1385,1.3653 -31.4508,1.3766 -39.0543,0.021 z m 441.9491,-60.5789 c -43.0589,-16.7636 -93.2336,-25.7963 -143.5509,-25.8424 -20.9378,-0.021 -33.8353,2.4141 -69.8514,13.1786 -23.3758,6.9866 -33.0336,9.4384 -45.8057,11.6284 -11.5266,1.9763 -24.5671,2.119 -30.5339,0.3341 -22.5255,-6.7388 -36.2382,-29.9636 -43.0339,-72.8854 -3.9083,-24.6843 -3.8237,-26.1384 4.7277,-81.2907 2.3129,-14.9171 4.2053,-27.4239 4.2053,-27.7927 0,-1.9187 31.4599,2.6832 63.1642,9.2395 65.3375,13.5115 103.3749,25.5974 164.4098,52.2392 17.7595,7.7519 145.9861,71.2492 145.9861,72.2916 0,0.9671 -41.5148,51.7213 -42.3058,51.7213 -0.091,0 -3.4258,-1.2696 -7.4115,-2.8213 z m 17.1118,-80.1944 c -5.2982,-3.0325 -9.8355,-5.8346 -10.0829,-6.227 -0.5949,-0.9434 -2.8673,-21.6017 -3.8237,-34.7606 -1.1435,-15.734 -0.9423,-42.2751 0.4079,-53.8179 1.9296,-16.4955 6.9336,-36.3484 13.2592,-52.6045 3.5579,-9.1435 13.7309,-30.165 18.3844,-37.9893 1.9857,-3.3387 3.6103,-6.3925 3.6103,-6.7861 0,-0.3937 -5.6041,-11.9197 -12.4535,-25.6134 -7.5379,-15.0701 -12.1735,-25.1779 -11.744,-25.6074 1.3253,-1.3254 15.2651,-6.9928 19.2691,-7.8343 15.262,-3.2073 33.2342,14.5385 36.7007,36.2385 0.9776,6.1192 0.05,12.9632 -7.7803,57.3738 -6.2372,35.3775 -11.5932,62.9493 -17.4641,89.9024 -5.1379,23.5879 -17.4358,73.2395 -18.1402,73.2395 -0.2804,0 -4.8446,-2.4812 -10.1429,-5.5137 z m -51.4842,-25.0872 c -17.1159,-7.6995 -54.9692,-24.2393 -109.4718,-47.833 -6.9267,-2.9986 -12.594,-5.7103 -12.594,-6.0262 0,-0.7707 58.8689,-74.2981 67.3306,-84.0961 26.0234,-30.1329 57.7465,-56.5079 83.9425,-69.7907 4.9813,-2.5258 9.2076,-4.4247 9.3918,-4.2198 0.1842,0.2049 5.1018,10.401 10.9279,22.658 l 10.5929,22.2854 -3.9308,6.655 c -15.541,26.3114 -25.531,56.4703 -29.0071,87.5696 -2.0638,18.463 -2.1438,27.4374 -0.4866,54.5724 0.8721,14.2797 1.5872,27.0922 1.5892,28.4722 l 0,2.5091 -4.0689,-1.8457 c -2.2379,-1.0151 -13.1366,-5.9247 -24.2194,-10.9102 l -3e-4,0 z M 436.6766,661.03597 c -11.1832,-17.67259 -19.6418,-36.7488 -24.3737,-54.96876 -4.4019,-16.94925 -5.4804,-25.38731 -5.4822,-42.89187 l 0,-15.50042 2.5281,-7.24691 c 1.3905,-3.9858 3.8921,-9.56595 5.5593,-12.40033 11.8996,-20.23209 37.1274,-36.73293 65.923,-43.11844 7.8245,-1.73511 29.424,-2.45906 35.8455,-1.20143 21.4394,4.19876 43.9024,20.50143 55.6423,40.38269 3.3466,5.66734 7.2188,15.47883 6.4214,16.27072 -0.3544,0.35179 -17.8577,7.80845 -38.8966,16.57033 l -38.2526,15.93071 -2.9557,-2.34097 c -5.3137,-4.20856 -9.6997,-5.67699 -18.034,-6.03785 -5.972,-0.25857 -8.3543,-0.0378 -11.163,1.03494 -7.9061,3.01934 -12.1564,9.54644 -13.4176,20.60497 -1.2028,10.54553 1.1911,17.75086 7.7678,23.38029 l 3.119,2.66975 2.6435,19.28966 c 1.9786,14.43816 2.4138,19.42634 1.7303,19.83308 -0.5023,0.2989 -6.842,4.5487 -14.0885,9.44406 -7.2464,4.89535 -13.5873,8.92312 -14.0909,8.95059 -0.5034,0.027 -3.3943,-3.8672 -6.4239,-8.65481 z"
     id="path4172-2"
     inkscape:connector-curvature="0" />
  <path
     style="fill:#000000;fill-opacity:0.92038215;stroke:none;stroke-width:0.026;stroke-miterlimit:4;stroke-dasharray:none;stroke-opacity:1"
     d="m 570.0029,840.8666 c 0,-1.6396 -0.1029,-2.4661 -0.3073,-2.4661 -0.1692,0 -8.4613,-0.6889 -18.4273,-1.5309 -19.9121,-1.6824 -22.1005,-1.7339 -28.5323,-0.6712 -6.5015,1.0742 -11.6061,2.7167 -17.1257,5.5108 l -3.1511,1.5951 33.7719,0.014 33.7718,0.014 0,-2.4661 z"
     id="path4174-1"
     inkscape:connector-curvature="0" />
  <path
     style="fill:#000000;fill-opacity:0.92038215;stroke:none;stroke-width:0.026;stroke-miterlimit:4;stroke-dasharray:none;stroke-opacity:1"
     d="m 381.3971,843.3327 7.1752,-0.137 -1.7679,-3.1271 c -6.9901,-12.3646 -14.7411,-19.5053 -23.0943,-21.2759 -2.6569,-0.5631 -9.5437,-0.5079 -11.7876,0.095 l -1.7484,0.4694 -3.4115,7.5353 c -1.8762,4.1445 -4.3161,9.5391 -5.4218,11.988 l -2.0103,4.4527 7.3291,0 7.3291,0 2.9922,-6.1797 2.9923,-6.1797 1.0268,0.1253 c 0.5648,0.069 1.8463,0.5087 2.8478,0.9775 2.3653,1.1068 5.6805,4.4128 7.9908,7.9685 0.9302,1.4317 1.847,2.7881 2.0373,3.0142 0.297,0.3527 1.3639,0.3916 7.5212,0.274 z"
     id="path4176-3"
     inkscape:connector-curvature="0" />
  <path
     style="fill:none;fill-rule:evenodd;stroke:#000000;stroke-width:0;stroke-linecap:butt;stroke-linejoin:miter;stroke-miterlimit:4;stroke-dasharray:none;stroke-opacity:1"
     d="m 388.5635,843.2378 -14.118,0.2286"
     id="path4180-2"
     inkscape:connector-curvature="0" />
  <path
     style="fill:none;fill-opacity:0.92038215;stroke:#000000;stroke-width:5.17333317;stroke-miterlimit:4;stroke-dasharray:none;stroke-opacity:1"
     d="m 546.1719,600.18324 c 3.6894,-0.2962 5.5493,-0.5306 8.1164,-1.02332 8.7258,-1.67466 16.8671,-5.4013 23.7568,-10.87463 1.7926,-1.42407 3.7563,-3.17227 5.1929,-4.62302 l 1.1711,-1.18258 -1.9998,-2.9985 -1.9999,-2.9985 0,-1.00499 0,-1.00499 -1.972,-0.6147 c -6.0306,-1.87977 -9.2358,-2.49036 -12.4318,-2.36823 -4.2553,0.1626 -7.783,1.01818 -11.4102,2.76736 -6.4668,3.11848 -11.6514,8.62908 -15.9416,16.9441 l -1.0187,1.97436 0.3554,0.1239 c 0.1955,0.068 0.7738,0.3263 1.2855,0.5737 2.5597,1.23783 3.6943,3.05519 3.3045,5.29323 -0.071,0.4107 -0.1599,0.8244 -0.1961,0.9193 -0.057,0.1497 0.1593,0.1701 1.6322,0.1534 0.9342,-0.01 1.9041,-0.036 2.1557,-0.056 z"
     id="path4190-7"
     inkscape:connector-curvature="0" />
</svg>
