<svg width="100" height="100" viewBox="0 0 100 100" xmlns="http://www.w3.org/2000/svg">
  <!-- Just for the outline -->
  <!-- <rect -->
  <!--     fill   = "none" -->
  <!--     stroke = "black" -->
  <!--     x      = "0" -->
  <!--     y      = "0" -->
  <!--     width  = "100" -->
  <!--     height = "100"/> -->
  <path
      fill   = "none"
      stroke ="black"
      d="M 10,     30
         l 10 -10
         l 10 10
         l 10 -10
         l 10 10
         l 10 -10
         l 10 10
         l 10 -10
         l 10 10
         M 10,     55
         l 10 -10
         l 10 10
         l 10 -10
         l 10 10
         l 10 -10
         l 10 10
         l 10 -10
         l 10 10
         M 10,     80
         l 10 -10
         l 10 10
         l 10 -10
         l 10 10
         l 10 -10
         l 10 10
         l 10 -10
         l 10 10
        "
  />
  
</svg>
